<svg width="62" height="780" viewBox="0 0 62 780" fill="none" xmlns="http://www.w3.org/2000/svg">
<path d="M33.7812 770.156C35.8854 769.865 37.4583 769.292 38.5 768.438C40.3958 766.875 41.3438 764.198 41.3438 760.406C41.3438 758.135 41.0938 756.292 40.5938 754.875C39.6354 752.188 37.8542 750.844 35.25 750.844C33.7292 750.844 32.5521 751.51 31.7188 752.844C30.9062 754.177 30.1875 756.271 29.5625 759.125L28.4688 764C27.3854 768.792 26.2083 772.104 24.9375 773.938C22.8125 777.042 19.4896 778.594 14.9688 778.594C10.8438 778.594 7.41667 777.094 4.6875 774.094C1.95833 771.094 0.59375 766.688 0.59375 760.875C0.59375 756.021 1.88542 751.885 4.46875 748.469C7.03125 745.031 10.7604 743.229 15.6563 743.062V752.312C12.8854 752.479 10.9167 753.688 9.75 755.938C8.97917 757.438 8.59375 759.302 8.59375 761.531C8.59375 764.01 9.09375 765.99 10.0938 767.469C11.0938 768.948 12.4896 769.688 14.2812 769.688C15.9271 769.688 17.1562 768.958 17.9688 767.5C18.5104 766.562 19.1458 764.562 19.875 761.5L21.7812 753.562C22.6146 750.083 23.7292 747.458 25.125 745.688C27.2917 742.938 30.4271 741.562 34.5312 741.562C38.7396 741.562 42.2396 743.177 45.0312 746.406C47.8021 749.615 49.1875 754.156 49.1875 760.031C49.1875 766.031 47.8229 770.75 45.0938 774.188C42.3438 777.625 38.5729 779.344 33.7812 779.344V770.156ZM30.9688 711.688C28.3438 711.688 26.0208 712.292 24 713.5C21.9792 714.688 20.9688 716.625 20.9688 719.312C20.9688 722.542 22.5 724.76 25.5625 725.969C27.1875 726.594 29.25 726.906 31.75 726.906C35.7083 726.906 38.4896 725.854 40.0938 723.75C41.0313 722.5 41.5 721.021 41.5 719.312C41.5 716.833 40.5417 714.948 38.625 713.656C36.7083 712.344 34.1563 711.688 30.9688 711.688ZM13.1875 716.75C13.1875 712.771 14.6563 709.406 17.5938 706.656C20.5313 703.885 24.8438 702.5 30.5313 702.5C36.5313 702.5 41.1042 703.854 44.25 706.562C47.3958 709.25 48.9688 712.719 48.9688 716.969C48.9688 719.677 48.2917 721.927 46.9375 723.719C46.1875 724.698 45.0938 725.656 43.6562 726.594H61.4062V735.406H13.9375V726.875H18.9688C17.4896 725.917 16.3229 724.896 15.4688 723.812C13.9479 721.833 13.1875 719.479 13.1875 716.75ZM41.7188 680.75C41.7188 678.146 40.7917 676.146 38.9375 674.75C37.0833 673.354 34.4479 672.656 31.0313 672.656C27.6146 672.656 24.9896 673.354 23.1563 674.75C21.3021 676.146 20.375 678.146 20.375 680.75C20.375 683.354 21.3021 685.365 23.1563 686.781C24.9896 688.177 27.6146 688.875 31.0313 688.875C34.4479 688.875 37.0833 688.177 38.9375 686.781C40.7917 685.365 41.7188 683.354 41.7188 680.75ZM31.0313 663.312C36.0313 663.312 40.3125 664.75 43.875 667.625C47.4167 670.5 49.1875 674.865 49.1875 680.719C49.1875 686.573 47.4167 690.938 43.875 693.812C40.3125 696.688 36.0313 698.125 31.0313 698.125C26.1146 698.125 21.8542 696.688 18.25 693.812C14.6458 690.938 12.8438 686.573 12.8438 680.719C12.8438 674.865 14.6458 670.5 18.25 667.625C21.8542 664.75 26.1146 663.312 31.0313 663.312ZM13.125 638.406C13.125 638.24 13.1354 638.104 13.1563 638C13.1563 637.875 13.1667 637.615 13.1875 637.219H22.3125C22.25 637.781 22.2083 638.281 22.1875 638.719C22.1667 639.156 22.1563 639.51 22.1563 639.781C22.1563 643.365 23.3229 645.771 25.6563 647C26.9688 647.688 28.9896 648.031 31.7188 648.031H48V657H13.9375L13.9375 648.5H19.875C17.6042 647.125 16.0521 645.927 15.2188 644.906C13.8229 643.24 13.125 641.073 13.125 638.406ZM20.5938 635.469H14.25V630.719H4.75L4.75 621.906H14.25V616.375H20.5938V621.906H38.5938C39.9896 621.906 40.8646 621.729 41.2188 621.375C41.5521 621.021 41.7188 619.938 41.7188 618.125C41.7188 617.854 41.7188 617.573 41.7188 617.281C41.6979 616.969 41.6771 616.667 41.6563 616.375H48.3125L48.4688 620.594C48.6146 624.802 47.8854 627.677 46.2813 629.219C45.2604 630.219 43.6875 630.719 41.5625 630.719H20.5938V635.469ZM37.125 603.719C38.7083 603.531 39.8333 603.125 40.5 602.5C41.6875 601.396 42.2813 599.354 42.2813 596.375C42.2813 594.625 42.0208 593.24 41.5 592.219C40.9792 591.177 40.1979 590.656 39.1563 590.656C38.1563 590.656 37.3958 591.073 36.875 591.906C36.3542 592.74 35.4583 595.833 34.1875 601.188C33.2292 605.042 32.0313 607.76 30.5938 609.344C29.1771 610.927 27.1354 611.719 24.4688 611.719C21.3229 611.719 18.625 610.49 16.375 608.031C14.1042 605.552 12.9688 602.073 12.9688 597.594C12.9688 593.344 13.8229 589.885 15.5313 587.219C17.2188 584.531 20.1458 582.99 24.3125 582.594V591.5C23.1667 591.625 22.2604 591.948 21.5938 592.469C20.3854 593.448 19.7813 595.115 19.7813 597.469C19.7813 599.406 20.0833 600.792 20.6875 601.625C21.2917 602.438 22 602.844 22.8125 602.844C23.8333 602.844 24.5729 602.406 25.0313 601.531C25.5104 600.656 26.3333 597.562 27.5 592.25C28.3333 588.708 29.5938 586.052 31.2813 584.281C32.9896 582.531 35.125 581.656 37.6875 581.656C41.0625 581.656 43.8229 582.917 45.9688 585.438C48.0938 587.938 49.1563 591.812 49.1563 597.062C49.1563 602.417 48.0313 606.375 45.7813 608.938C43.5104 611.479 40.625 612.75 37.125 612.75L37.125 603.719ZM31.4375 538.438C31.7917 539 32.0833 539.573 32.3125 540.156C32.5208 540.719 32.7188 541.5 32.9063 542.5L33.2813 544.5C33.6146 546.375 34.0208 547.719 34.5 548.531C35.3125 549.906 36.5729 550.594 38.2813 550.594C39.8021 550.594 40.9063 550.177 41.5938 549.344C42.2604 548.49 42.5938 547.458 42.5938 546.25C42.5938 544.333 42.0313 542.573 40.9063 540.969C39.7813 539.344 37.7292 538.5 34.75 538.438H31.4375ZM27.2813 543.844C27.0729 542.198 26.8125 541.021 26.5 540.312C25.9583 539.042 25.1146 538.406 23.9688 538.406C22.5729 538.406 21.6146 538.896 21.0938 539.875C20.5521 540.833 20.2813 542.25 20.2813 544.125C20.2813 546.229 20.8021 547.719 21.8438 548.594C22.6146 549.219 23.6563 549.635 24.9688 549.844V558.438C21.9896 558.25 19.5417 557.417 17.625 555.938C14.625 553.583 13.125 549.542 13.125 543.812C13.125 540.083 13.8646 536.771 15.3438 533.875C16.8229 530.979 19.6146 529.531 23.7188 529.531H39.3438C40.4271 529.531 41.7396 529.51 43.2813 529.469C44.4479 529.406 45.2396 529.229 45.6563 528.938C46.0729 528.646 46.4167 528.208 46.6875 527.625H48V537.312C47.3125 537.583 46.6667 537.771 46.0625 537.875C45.4583 537.979 44.7708 538.062 44 538.125C45.3333 539.354 46.4688 540.771 47.4063 542.375C48.5104 544.292 49.0625 546.458 49.0625 548.875C49.0625 551.958 48.1875 554.51 46.4375 556.531C44.6667 558.531 42.1667 559.531 38.9375 559.531C34.75 559.531 31.7188 557.917 29.8438 554.688C28.8229 552.917 28.0938 550.312 27.6563 546.875L27.2813 543.844ZM13.125 502.719C13.125 499.198 14.0521 496.323 15.9063 494.094C17.7396 491.844 20.7917 490.719 25.0625 490.719H48L48 499.844H27.2813C25.4896 499.844 24.1146 500.083 23.1563 500.562C21.4063 501.438 20.5313 503.104 20.5313 505.562C20.5313 508.583 21.8125 510.656 24.375 511.781C25.7292 512.365 27.4583 512.656 29.5625 512.656H48V521.531H14V512.938H18.9688C17.2188 511.792 15.9583 510.708 15.1875 509.688C13.8125 507.854 13.125 505.531 13.125 502.719ZM13.125 469.906C13.125 467.844 13.5833 466.01 14.5 464.406C15.3958 462.802 16.6458 461.5 18.25 460.5H2L2 451.469H48V460.125H43.2813C45.3021 461.396 46.7708 462.844 47.6875 464.469C48.6042 466.094 49.0625 468.115 49.0625 470.531C49.0625 474.51 47.4583 477.865 44.25 480.594C41.0208 483.302 36.8854 484.656 31.8438 484.656C26.0313 484.656 21.4583 483.323 18.125 480.656C14.7917 477.969 13.125 474.385 13.125 469.906ZM41.5625 467.969C41.5625 465.448 40.625 463.531 38.75 462.219C36.875 460.906 34.4479 460.25 31.4688 460.25C27.3021 460.25 24.3229 461.302 22.5313 463.406C21.4479 464.698 20.9063 466.198 20.9063 467.906C20.9063 470.51 21.8958 472.427 23.875 473.656C25.8333 474.865 28.2708 475.469 31.1875 475.469C34.3333 475.469 36.8542 474.854 38.75 473.625C40.625 472.375 41.5625 470.49 41.5625 467.969ZM10.0938 390.75V415.125H19.875L19.875 392.75H27.875L27.875 415.125H39.7188V389.625H48V424.531H1.9375L1.9375 390.75H10.0938ZM13.125 363.969C13.125 360.448 14.0521 357.573 15.9063 355.344C17.7396 353.094 20.7917 351.969 25.0625 351.969H48V361.094H27.2813C25.4896 361.094 24.1146 361.333 23.1563 361.812C21.4063 362.688 20.5313 364.354 20.5313 366.812C20.5313 369.833 21.8125 371.906 24.375 373.031C25.7292 373.615 27.4583 373.906 29.5625 373.906H48L48 382.781H14V374.188H18.9688C17.2188 373.042 15.9583 371.958 15.1875 370.938C13.8125 369.104 13.125 366.781 13.125 363.969ZM20.5938 347.219H14.25V342.469H4.75L4.75 333.656H14.25L14.25 328.125H20.5938V333.656H38.5938C39.9896 333.656 40.8646 333.479 41.2188 333.125C41.5521 332.771 41.7188 331.688 41.7188 329.875C41.7188 329.604 41.7188 329.323 41.7188 329.031C41.6979 328.719 41.6771 328.417 41.6563 328.125H48.3125L48.4688 332.344C48.6146 336.552 47.8854 339.427 46.2813 340.969C45.2604 341.969 43.6875 342.469 41.5625 342.469H20.5938L20.5938 347.219ZM20.375 308.969C20.375 311.031 21.0208 312.635 22.3125 313.781C23.6042 314.906 25.3542 315.615 27.5625 315.906V302.062C25.2083 302.208 23.4271 302.927 22.2188 304.219C20.9896 305.49 20.375 307.073 20.375 308.969ZM13.0313 308.969C13.0313 306.135 13.5625 303.583 14.625 301.312C15.6875 299.042 17.3646 297.167 19.6563 295.688C21.6771 294.354 24.0208 293.49 26.6875 293.094C28.25 292.865 30.5 292.771 33.4375 292.812V316.125C36.8542 316 39.25 314.927 40.625 312.906C41.4792 311.677 41.9063 310.198 41.9063 308.469C41.9063 306.635 41.3854 305.146 40.3438 304C39.7813 303.375 39 302.823 38 302.344V293.25C40.0208 293.479 42.0729 294.531 44.1563 296.406C47.4688 299.323 49.125 303.406 49.125 308.656C49.125 312.99 47.7292 316.812 44.9375 320.125C42.1458 323.438 37.6042 325.094 31.3125 325.094C25.4167 325.094 20.8958 323.604 17.75 320.625C14.6042 317.625 13.0313 313.74 13.0313 308.969ZM13.125 268.281C13.125 268.115 13.1354 267.979 13.1563 267.875C13.1563 267.75 13.1667 267.49 13.1875 267.094H22.3125C22.25 267.656 22.2083 268.156 22.1875 268.594C22.1667 269.031 22.1563 269.385 22.1563 269.656C22.1563 273.24 23.3229 275.646 25.6563 276.875C26.9688 277.562 28.9896 277.906 31.7188 277.906H48V286.875H13.9375V278.375H19.875C17.6042 277 16.0521 275.802 15.2188 274.781C13.8229 273.115 13.125 270.948 13.125 268.281ZM20.5938 265.344H14.25V260.594H4.75V251.781H14.25V246.25H20.5938V251.781H38.5938C39.9896 251.781 40.8646 251.604 41.2188 251.25C41.5521 250.896 41.7188 249.812 41.7188 248C41.7188 247.729 41.7188 247.448 41.7188 247.156C41.6979 246.844 41.6771 246.542 41.6563 246.25H48.3125L48.4688 250.469C48.6146 254.677 47.8854 257.552 46.2813 259.094C45.2604 260.094 43.6875 260.594 41.5625 260.594H20.5938V265.344ZM31.4375 221.75C31.7917 222.312 32.0833 222.885 32.3125 223.469C32.5208 224.031 32.7188 224.812 32.9063 225.812L33.2813 227.812C33.6146 229.688 34.0208 231.031 34.5 231.844C35.3125 233.219 36.5729 233.906 38.2813 233.906C39.8021 233.906 40.9063 233.49 41.5938 232.656C42.2604 231.802 42.5938 230.771 42.5938 229.562C42.5938 227.646 42.0313 225.885 40.9063 224.281C39.7813 222.656 37.7292 221.812 34.75 221.75H31.4375ZM27.2813 227.156C27.0729 225.51 26.8125 224.333 26.5 223.625C25.9583 222.354 25.1146 221.719 23.9688 221.719C22.5729 221.719 21.6146 222.208 21.0938 223.188C20.5521 224.146 20.2813 225.562 20.2813 227.438C20.2813 229.542 20.8021 231.031 21.8438 231.906C22.6146 232.531 23.6563 232.948 24.9688 233.156V241.75C21.9896 241.562 19.5417 240.729 17.625 239.25C14.625 236.896 13.125 232.854 13.125 227.125C13.125 223.396 13.8646 220.083 15.3438 217.188C16.8229 214.292 19.6146 212.844 23.7188 212.844H39.3438C40.4271 212.844 41.7396 212.823 43.2813 212.781C44.4479 212.719 45.2396 212.542 45.6563 212.25C46.0729 211.958 46.4167 211.521 46.6875 210.938H48V220.625C47.3125 220.896 46.6667 221.083 46.0625 221.188C45.4583 221.292 44.7708 221.375 44 221.438C45.3333 222.667 46.4688 224.083 47.4063 225.688C48.5104 227.604 49.0625 229.771 49.0625 232.188C49.0625 235.271 48.1875 237.823 46.4375 239.844C44.6667 241.844 42.1667 242.844 38.9375 242.844C34.75 242.844 31.7188 241.229 29.8438 238C28.8229 236.229 28.0938 233.625 27.6563 230.188L27.2813 227.156ZM9.875 195.75V204.781H1.65625L1.65625 195.75H9.875ZM13.9375 204.781V195.75H48V204.781H13.9375ZM13.125 168.219C13.125 164.698 14.0521 161.823 15.9063 159.594C17.7396 157.344 20.7917 156.219 25.0625 156.219H48V165.344H27.2813C25.4896 165.344 24.1146 165.583 23.1563 166.062C21.4063 166.938 20.5313 168.604 20.5313 171.062C20.5313 174.083 21.8125 176.156 24.375 177.281C25.7292 177.865 27.4583 178.156 29.5625 178.156H48V187.031H14V178.438H18.9688C17.2188 177.292 15.9583 176.208 15.1875 175.188C13.8125 173.354 13.125 171.031 13.125 168.219ZM13.1875 109.906C13.1875 108.406 13.4792 106.927 14.0625 105.469C14.6458 104.01 15.6667 102.688 17.125 101.5C18.3125 100.542 19.7708 99.8958 21.5 99.5625C22.6458 99.3542 24.3229 99.25 26.5313 99.25L48 99.3125V108.438H26.3125C25.0208 108.438 23.9583 108.646 23.125 109.062C21.5417 109.854 20.75 111.312 20.75 113.438C20.75 115.896 21.7708 117.594 23.8125 118.531C24.8958 119.01 26.1979 119.25 27.7188 119.25H48V128.219H27.7188C25.6979 128.219 24.2292 128.427 23.3125 128.844C21.6667 129.594 20.8438 131.062 20.8438 133.25C20.8438 135.792 21.6667 137.5 23.3125 138.375C24.25 138.854 25.6458 139.094 27.5 139.094H48L48 148.125H14V139.469H18.9688C17.1979 138.365 15.9375 137.323 15.1875 136.344C13.8542 134.615 13.1875 132.375 13.1875 129.625C13.1875 127.021 13.7604 124.917 14.9063 123.312C15.9688 122.021 17.3333 121.042 19 120.375C17 119.208 15.5313 117.76 14.5938 116.031C13.6563 114.198 13.1875 112.156 13.1875 109.906ZM20.375 77.5938C20.375 79.6562 21.0208 81.2604 22.3125 82.4062C23.6042 83.5312 25.3542 84.2396 27.5625 84.5312V70.6875C25.2083 70.8333 23.4271 71.5521 22.2188 72.8438C20.9896 74.1146 20.375 75.6979 20.375 77.5938ZM13.0313 77.5938C13.0313 74.7604 13.5625 72.2083 14.625 69.9375C15.6875 67.6667 17.3646 65.7917 19.6563 64.3125C21.6771 62.9792 24.0208 62.1146 26.6875 61.7188C28.25 61.4896 30.5 61.3958 33.4375 61.4375V84.75C36.8542 84.625 39.25 83.5521 40.625 81.5312C41.4792 80.3021 41.9063 78.8229 41.9063 77.0938C41.9063 75.2604 41.3854 73.7708 40.3438 72.625C39.7813 72 39 71.4479 38 70.9688V61.875C40.0208 62.1042 42.0729 63.1562 44.1563 65.0312C47.4688 67.9479 49.125 72.0312 49.125 77.2812C49.125 81.6146 47.7292 85.4375 44.9375 88.75C42.1458 92.0625 37.6042 93.7188 31.3125 93.7188C25.4167 93.7188 20.8958 92.2292 17.75 89.25C14.6042 86.25 13.0313 82.3646 13.0313 77.5938ZM13.125 36.5312C13.125 33.0104 14.0521 30.1354 15.9063 27.9062C17.7396 25.6562 20.7917 24.5312 25.0625 24.5312H48L48 33.6562H27.2813C25.4896 33.6562 24.1146 33.8958 23.1563 34.375C21.4063 35.25 20.5313 36.9167 20.5313 39.375C20.5313 42.3958 21.8125 44.4688 24.375 45.5938C25.7292 46.1771 27.4583 46.4688 29.5625 46.4688H48V55.3438H14V46.75H18.9688C17.2188 45.6042 15.9583 44.5208 15.1875 43.5C13.8125 41.6667 13.125 39.3438 13.125 36.5312ZM20.5938 19.7812H14.25V15.0312H4.75L4.75 6.21875H14.25V0.6875H20.5938V6.21875H38.5938C39.9896 6.21875 40.8646 6.04167 41.2188 5.6875C41.5521 5.33333 41.7188 4.25 41.7188 2.4375C41.7188 2.16667 41.7188 1.88542 41.7188 1.59375C41.6979 1.28125 41.6771 0.979167 41.6563 0.6875H48.3125L48.4688 4.90625C48.6146 9.11458 47.8854 11.9896 46.2813 13.5312C45.2604 14.5312 43.6875 15.0312 41.5625 15.0312H20.5938V19.7812Z" fill="#C4C4C4"/>
</svg>
