<svg width="44" height="44" viewBox="0 0 44 44" fill="none" xmlns="http://www.w3.org/2000/svg">
<path fill-rule="evenodd" clip-rule="evenodd" d="M22.3256 43.3464C34.2953 43.3464 43.9988 33.643 43.9988 21.6732C43.9988 9.70343 34.2953 0 22.3256 0C10.3558 0 0.652344 9.70343 0.652344 21.6732C0.652344 33.643 10.3558 43.3464 22.3256 43.3464Z" fill="url(#paint0_linear_1972_13796)"/>
<g clipPath="url(#clip0_1972_13796)">
<path d="M23.4997 22.0824C23.4997 22.9557 22.7917 23.6638 21.9183 23.6638C21.045 23.6638 20.3369 22.9557 20.3369 22.0824C20.3369 21.209 21.045 20.501 21.9183 20.501C22.7917 20.501 23.4997 21.209 23.4997 22.0824Z" fill="white"/>
<path d="M24.5888 17.3027H19.2472C18.0845 17.3027 17.1387 18.2486 17.1387 19.4113V24.7529C17.1387 25.9156 18.0845 26.8614 19.2472 26.8614H24.5888C25.7516 26.8614 26.6974 25.9156 26.6974 24.7529V19.4113C26.6974 18.2486 25.7516 17.3027 24.5888 17.3027ZM21.918 24.7178C20.4647 24.7178 19.2824 23.5354 19.2824 22.0821C19.2824 20.6288 20.4647 19.4464 21.918 19.4464C23.3714 19.4464 24.5537 20.6288 24.5537 22.0821C24.5537 23.5354 23.3714 24.7178 21.918 24.7178ZM24.9403 19.587C24.6491 19.587 24.4131 19.351 24.4131 19.0598C24.4131 18.7687 24.6491 18.5327 24.9403 18.5327C25.2314 18.5327 25.4674 18.7687 25.4674 19.0598C25.4674 19.351 25.2314 19.587 24.9403 19.587Z" fill="white"/>
<path d="M26.1705 13.0859H17.6661C15.0502 13.0859 12.9219 15.2142 12.9219 17.8301V26.3346C12.9219 28.9505 15.0502 31.0788 17.6661 31.0788H26.1705C28.7864 31.0788 30.9147 28.9505 30.9147 26.3346V17.8301C30.9147 15.2142 28.7864 13.0859 26.1705 13.0859ZM27.7519 24.7532C27.7519 26.4971 26.3331 27.916 24.5891 27.916H19.2475C17.5036 27.916 16.0847 26.4971 16.0847 24.7532V19.4116C16.0847 17.6676 17.5036 16.2487 19.2475 16.2487H24.5891C26.3331 16.2487 27.7519 17.6676 27.7519 19.4116V24.7532Z" fill="white"/>
</g>
<defs>
<linearGradient id="paint0_linear_1972_13796" x1="1" y1="5.5" x2="42.5" y2="39.5" gradientUnits="userSpaceOnUse">
<stop stop-color="#FCAF45"/>
<stop offset="0.477708" stop-color="#EE2A7B"/>
<stop offset="1" stop-color="#6228D7"/>
</linearGradient>
<clipPath id="clip0_1972_13796">
<rect width="17.9929" height="17.9929" fill="white" transform="translate(12.9219 13.0859)"/>
</clipPath>
</defs>
</svg>
