<svg width="46" height="46" viewBox="0 0 46 46" fill="none" xmlns="http://www.w3.org/2000/svg">
<path opacity="0.1" fill-rule="evenodd" clip-rule="evenodd" d="M23.3256 44.3479C35.2953 44.3479 44.9988 34.6445 44.9988 22.6747C44.9988 10.7049 35.2953 1.00146 23.3256 1.00146C11.3558 1.00146 1.65234 10.7049 1.65234 22.6747C1.65234 34.6445 11.3558 44.3479 23.3256 44.3479Z" stroke="#282828" stroke-width="1.8577"/>
<g clip-path="url(#clip0_1172_3596)">
<path d="M24.4997 23.0843C24.4997 23.9577 23.7917 24.6657 22.9183 24.6657C22.045 24.6657 21.3369 23.9577 21.3369 23.0843C21.3369 22.211 22.045 21.5029 22.9183 21.5029C23.7917 21.5029 24.4997 22.211 24.4997 23.0843Z" fill="#282828"/>
<path d="M25.5888 18.3047H20.2472C19.0845 18.3047 18.1387 19.2505 18.1387 20.4132V25.7549C18.1387 26.9176 19.0845 27.8634 20.2472 27.8634H25.5888C26.7516 27.8634 27.6974 26.9176 27.6974 25.7549V20.4132C27.6974 19.2505 26.7516 18.3047 25.5888 18.3047ZM22.918 25.7197C21.4647 25.7197 20.2824 24.5374 20.2824 23.084C20.2824 21.6307 21.4647 20.4484 22.918 20.4484C24.3714 20.4484 25.5537 21.6307 25.5537 23.084C25.5537 24.5374 24.3714 25.7197 22.918 25.7197ZM25.9403 20.5889C25.6491 20.5889 25.4131 20.353 25.4131 20.0618C25.4131 19.7706 25.6491 19.5347 25.9403 19.5347C26.2314 19.5347 26.4674 19.7706 26.4674 20.0618C26.4674 20.353 26.2314 20.5889 25.9403 20.5889Z" fill="#282828"/>
<path d="M27.1705 14.0874H18.6661C16.0502 14.0874 13.9219 16.2157 13.9219 18.8316V27.3361C13.9219 29.952 16.0502 32.0803 18.6661 32.0803H27.1705C29.7864 32.0803 31.9147 29.952 31.9147 27.3361V18.8316C31.9147 16.2157 29.7864 14.0874 27.1705 14.0874ZM28.7519 25.7546C28.7519 27.4986 27.3331 28.9175 25.5891 28.9175H20.2475C18.5036 28.9175 17.0847 27.4986 17.0847 25.7546V20.413C17.0847 18.6691 18.5036 17.2502 20.2475 17.2502H25.5891C27.3331 17.2502 28.7519 18.6691 28.7519 20.413V25.7546Z" fill="#282828"/>
</g>
<defs>
<clipPath id="clip0_1172_3596">
<rect width="17.9929" height="17.9929" fill="white" transform="translate(13.9219 14.0874)"/>
</clipPath>
</defs>
</svg>
