<svg width="46" height="46" viewBox="0 0 46 46" fill="none" xmlns="http://www.w3.org/2000/svg">
<path opacity="0.1" fill-rule="evenodd" clip-rule="evenodd" d="M22.6732 44.3479C34.643 44.3479 44.3464 34.6445 44.3464 22.6747C44.3464 10.7049 34.643 1.00146 22.6732 1.00146C10.7034 1.00146 1 10.7049 1 22.6747C1 34.6445 10.7034 44.3479 22.6732 44.3479Z" stroke="#282828" stroke-width="1.8577"/>
<path d="M17.6987 18.2992C18.7134 18.2992 19.536 17.4766 19.536 16.4618C19.536 15.4471 18.7134 14.6245 17.6987 14.6245C16.6839 14.6245 15.8613 15.4471 15.8613 16.4618C15.8613 17.4766 16.6839 18.2992 17.6987 18.2992Z" fill="#282828"/>
<path d="M19.2298 19.5264H16.1675C15.9985 19.5264 15.8613 19.6636 15.8613 19.8326V29.0192C15.8613 29.1883 15.9985 29.3255 16.1675 29.3255H19.2298C19.3988 29.3255 19.536 29.1883 19.536 29.0192V19.8326C19.536 19.6636 19.3988 19.5264 19.2298 19.5264Z" fill="#282828"/>
<path d="M28.3552 19.0177C27.0464 18.5693 25.4093 18.9631 24.4276 19.6693C24.3939 19.5376 24.2738 19.4396 24.1311 19.4396H21.0689C20.8999 19.4396 20.7627 19.5768 20.7627 19.7458V28.9325C20.7627 29.1015 20.8999 29.2387 21.0689 29.2387H24.1311C24.3002 29.2387 24.4374 29.1015 24.4374 28.9325V22.3304C24.9322 21.9041 25.5698 21.7681 26.0916 21.9898C26.5974 22.2036 26.8871 22.7254 26.8871 23.4205V28.9325C26.8871 29.1015 27.0243 29.2387 27.1934 29.2387H30.2556C30.4246 29.2387 30.5618 29.1015 30.5618 28.9325V22.8038C30.5269 20.2872 29.343 19.3557 28.3552 19.0177Z" fill="#282828"/>
</svg>
