<svg width="157" height="157" viewBox="0 0 157 157" fill="none" xmlns="http://www.w3.org/2000/svg">
<circle cx="78.5" cy="78.5" r="78.5" fill="#C42C2D"/>
<mask id="mask0_125_4419" style="mask-type:luminance" maskUnits="userSpaceOnUse" x="49" y="47" width="59" height="59">
<path d="M49 47H107.667V105.667H49V47Z" fill="white"/>
</mask>
<g mask="url(#mask0_125_4419)">
<path d="M105.375 72.2083V60.75C105.375 54.4217 100.245 49.2917 93.9167 49.2917H62.7501C56.4218 49.2917 51.2917 54.4217 51.2917 60.75V91.9167C51.2917 98.245 56.4218 103.375 62.7501 103.375H74.6667" stroke="white" stroke-width="4.58333" stroke-miterlimit="10" stroke-linecap="round" stroke-linejoin="round"/>
<path d="M72.4897 59.6042H84.1772" stroke="white" stroke-width="4.58333" stroke-miterlimit="10" stroke-linecap="round" stroke-linejoin="round"/>
<path d="M105.375 90.1979C105.375 97.4755 99.4756 103.375 92.1981 103.375C84.9205 103.375 79.021 97.4755 79.021 90.1979C79.021 82.9204 84.9205 77.0208 92.1981 77.0208C99.4756 77.0208 105.375 82.9204 105.375 90.1979Z" stroke="white" stroke-width="4.58333" stroke-miterlimit="10" stroke-linecap="round" stroke-linejoin="round"/>
<path d="M88.7605 93.6354L95.6355 86.7604" stroke="white" stroke-width="4.58333" stroke-miterlimit="10" stroke-linecap="round" stroke-linejoin="round"/>
<path d="M95.6355 93.6354L88.7605 86.7604" stroke="white" stroke-width="4.58333" stroke-miterlimit="10" stroke-linecap="round" stroke-linejoin="round"/>
</g>
</svg>
