<svg width="24" height="10" viewBox="0 0 24 10" fill="none" xmlns="http://www.w3.org/2000/svg">
<path d="M0.626953 4.08709L0.00310893 4.08709L0.00310867 5.33478L0.626953 5.33478L0.626953 4.08709ZM23.5265 5.15207C23.7701 4.90844 23.7701 4.51344 23.5265 4.26982L19.5564 0.299696C19.3127 0.0560695 18.9177 0.0560694 18.6741 0.299696C18.4305 0.543322 18.4305 0.938318 18.6741 1.18194L22.2031 4.71094L18.6741 8.23994C18.4305 8.48356 18.4305 8.87856 18.6741 9.12219C18.9177 9.36581 19.3127 9.36581 19.5564 9.12219L23.5265 5.15207ZM0.626953 5.33478L23.0853 5.33479L23.0853 4.0871L0.626953 4.08709L0.626953 5.33478Z" fill="#C42C2D"/>
</svg>
