<svg width="146" height="25" viewBox="0 0 146 25" fill="none" xmlns="http://www.w3.org/2000/svg">
<path d="M11.008 25L3.018 3.716H2.882C2.92733 4.16933 2.96133 4.74733 2.984 5.45C3.02933 6.15267 3.06333 6.92333 3.086 7.762C3.10867 8.578 3.12 9.41667 3.12 10.278V25H0.298V0.723998H4.82L12.3 20.614H12.436L20.052 0.723998H24.54V25H21.514V10.074C21.514 9.28067 21.5253 8.49867 21.548 7.728C21.5707 6.93467 21.6047 6.198 21.65 5.518C21.6953 4.81533 21.7293 4.226 21.752 3.75H21.616L13.524 25H11.008ZM55.7058 25L52.7818 17.486H43.1598L40.2698 25H37.1758L46.6618 0.622H49.4158L58.8678 25H55.7058ZM49.1438 7.422C49.0758 7.24067 48.9624 6.912 48.8038 6.436C48.6451 5.96 48.4864 5.47267 48.3278 4.974C48.1918 4.45267 48.0784 4.056 47.9878 3.784C47.8744 4.23733 47.7498 4.702 47.6138 5.178C47.5004 5.63133 47.3758 6.05067 47.2398 6.436C47.1264 6.82133 47.0244 7.15 46.9338 7.422L44.1798 14.766H51.8638L49.1438 7.422ZM77.8427 12.658L84.1667 0.723998H87.4647L79.3727 15.582V25H76.3127V15.718L68.2207 0.723998H71.5527L77.8427 12.658ZM113.673 25H100.107V0.723998H113.673V3.41H103.167V10.992H113.061V13.644H103.167V22.314H113.673V25ZM135.027 0.723998C137.045 0.723998 138.699 0.984665 139.991 1.506C141.306 2.00467 142.281 2.764 142.915 3.784C143.55 4.804 143.867 6.08466 143.867 7.626C143.867 8.918 143.629 9.99467 143.153 10.856C142.677 11.7173 142.065 12.4087 141.317 12.93C140.592 13.4287 139.821 13.8253 139.005 14.12L145.669 25H142.099L136.217 14.97H131.389V25H128.329V0.723998H135.027ZM134.857 3.376H131.389V12.386H135.027C136.342 12.386 137.419 12.216 138.257 11.876C139.096 11.5133 139.708 10.992 140.093 10.312C140.501 9.632 140.705 8.782 140.705 7.762C140.705 6.69667 140.49 5.84667 140.059 5.212C139.651 4.57733 139.017 4.11267 138.155 3.818C137.294 3.52333 136.195 3.376 134.857 3.376Z" fill="#333333"/>
</svg>
