<svg width="307" height="65" viewBox="0 0 307 65" fill="none" xmlns="http://www.w3.org/2000/svg">
<path d="M2.59082 7.88965C2.65462 8.34993 2.77995 8.69401 2.9668 8.92188C3.30859 9.33659 3.89421 9.54395 4.72363 9.54395C5.22038 9.54395 5.6237 9.48926 5.93359 9.37988C6.52148 9.17025 6.81543 8.7806 6.81543 8.21094C6.81543 7.87826 6.6696 7.62077 6.37793 7.43848C6.08626 7.26074 5.62826 7.10352 5.00391 6.9668L3.9375 6.72754C2.88932 6.49056 2.16471 6.23307 1.76367 5.95508C1.08464 5.49023 0.745117 4.76335 0.745117 3.77441C0.745117 2.87207 1.07324 2.1224 1.72949 1.52539C2.38574 0.928385 3.34961 0.629883 4.62109 0.629883C5.68294 0.629883 6.58757 0.912435 7.33496 1.47754C8.08691 2.03809 8.48112 2.85384 8.51758 3.9248H6.49414C6.45768 3.31868 6.19336 2.88802 5.70117 2.63281C5.37305 2.46419 4.96517 2.37988 4.47754 2.37988C3.93522 2.37988 3.50228 2.48926 3.17871 2.70801C2.85514 2.92676 2.69336 3.2321 2.69336 3.62402C2.69336 3.98405 2.85286 4.25293 3.17188 4.43066C3.37695 4.54915 3.81445 4.68815 4.48438 4.84766L6.2207 5.26465C6.98177 5.44694 7.55599 5.69076 7.94336 5.99609C8.54492 6.47005 8.8457 7.15592 8.8457 8.05371C8.8457 8.97428 8.49251 9.73991 7.78613 10.3506C7.08431 10.9567 6.09082 11.2598 4.80566 11.2598C3.49316 11.2598 2.46094 10.9613 1.70898 10.3643C0.957031 9.7627 0.581055 8.93783 0.581055 7.88965H2.59082ZM16.0781 4.12988C16.0781 3.60579 15.9391 3.2321 15.6611 3.00879C15.3877 2.78548 15.0026 2.67383 14.5059 2.67383H12.5439V5.64062H14.5059C15.0026 5.64062 15.3877 5.51986 15.6611 5.27832C15.9391 5.03678 16.0781 4.65397 16.0781 4.12988ZM18.1631 4.11621C18.1631 5.30566 17.8623 6.14648 17.2607 6.63867C16.6592 7.13086 15.8001 7.37695 14.6836 7.37695H12.5439V11H10.4521V0.923828H14.8408C15.8525 0.923828 16.6592 1.18359 17.2607 1.70312C17.8623 2.22266 18.1631 3.02702 18.1631 4.11621ZM24.1992 9.49609C25.0332 9.49609 25.694 9.18848 26.1816 8.57324C26.6738 7.95801 26.9199 7.08301 26.9199 5.94824C26.9199 4.81803 26.6738 3.94531 26.1816 3.33008C25.694 2.71029 25.0332 2.40039 24.1992 2.40039C23.3652 2.40039 22.6999 2.70801 22.2031 3.32324C21.7064 3.93848 21.458 4.81348 21.458 5.94824C21.458 7.08301 21.7064 7.95801 22.2031 8.57324C22.6999 9.18848 23.3652 9.49609 24.1992 9.49609ZM29.0254 5.94824C29.0254 7.75749 28.5173 9.1429 27.501 10.1045C26.7399 10.8883 25.6393 11.2803 24.1992 11.2803C22.7591 11.2803 21.6585 10.8883 20.8975 10.1045C19.8766 9.1429 19.3662 7.75749 19.3662 5.94824C19.3662 4.10254 19.8766 2.71712 20.8975 1.79199C21.6585 1.00814 22.7591 0.616211 24.1992 0.616211C25.6393 0.616211 26.7399 1.00814 27.501 1.79199C28.5173 2.71712 29.0254 4.10254 29.0254 5.94824ZM30.6045 0.923828H32.8125L36.8252 7.95801V0.923828H38.7871V11H36.6816L32.5664 3.84277V11H30.6045V0.923828ZM42.2803 7.88965C42.3441 8.34993 42.4694 8.69401 42.6562 8.92188C42.998 9.33659 43.5837 9.54395 44.4131 9.54395C44.9098 9.54395 45.3132 9.48926 45.623 9.37988C46.2109 9.17025 46.5049 8.7806 46.5049 8.21094C46.5049 7.87826 46.359 7.62077 46.0674 7.43848C45.7757 7.26074 45.3177 7.10352 44.6934 6.9668L43.627 6.72754C42.5788 6.49056 41.8542 6.23307 41.4531 5.95508C40.7741 5.49023 40.4346 4.76335 40.4346 3.77441C40.4346 2.87207 40.7627 2.1224 41.4189 1.52539C42.0752 0.928385 43.0391 0.629883 44.3105 0.629883C45.3724 0.629883 46.277 0.912435 47.0244 1.47754C47.7764 2.03809 48.1706 2.85384 48.207 3.9248H46.1836C46.1471 3.31868 45.8828 2.88802 45.3906 2.63281C45.0625 2.46419 44.6546 2.37988 44.167 2.37988C43.6247 2.37988 43.1917 2.48926 42.8682 2.70801C42.5446 2.92676 42.3828 3.2321 42.3828 3.62402C42.3828 3.98405 42.5423 4.25293 42.8613 4.43066C43.0664 4.54915 43.5039 4.68815 44.1738 4.84766L45.9102 5.26465C46.6712 5.44694 47.2454 5.69076 47.6328 5.99609C48.2344 6.47005 48.5352 7.15592 48.5352 8.05371C48.5352 8.97428 48.182 9.73991 47.4756 10.3506C46.7738 10.9567 45.7803 11.2598 44.4951 11.2598C43.1826 11.2598 42.1504 10.9613 41.3984 10.3643C40.6465 9.7627 40.2705 8.93783 40.2705 7.88965H42.2803ZM54.5508 9.49609C55.3848 9.49609 56.0456 9.18848 56.5332 8.57324C57.0254 7.95801 57.2715 7.08301 57.2715 5.94824C57.2715 4.81803 57.0254 3.94531 56.5332 3.33008C56.0456 2.71029 55.3848 2.40039 54.5508 2.40039C53.7168 2.40039 53.0514 2.70801 52.5547 3.32324C52.0579 3.93848 51.8096 4.81348 51.8096 5.94824C51.8096 7.08301 52.0579 7.95801 52.5547 8.57324C53.0514 9.18848 53.7168 9.49609 54.5508 9.49609ZM59.377 5.94824C59.377 7.75749 58.8688 9.1429 57.8525 10.1045C57.0915 10.8883 55.9909 11.2803 54.5508 11.2803C53.1107 11.2803 52.0101 10.8883 51.249 10.1045C50.2282 9.1429 49.7178 7.75749 49.7178 5.94824C49.7178 4.10254 50.2282 2.71712 51.249 1.79199C52.0101 1.00814 53.1107 0.616211 54.5508 0.616211C55.9909 0.616211 57.0915 1.00814 57.8525 1.79199C58.8688 2.71712 59.377 4.10254 59.377 5.94824ZM63.0957 2.67383V5.38086H65.4814C65.9554 5.38086 66.3109 5.32617 66.5479 5.2168C66.9671 5.02539 67.1768 4.64714 67.1768 4.08203C67.1768 3.47135 66.974 3.0612 66.5684 2.85156C66.3405 2.73307 65.9987 2.67383 65.543 2.67383H63.0957ZM65.9805 0.923828C66.6868 0.9375 67.2292 1.02409 67.6074 1.18359C67.9902 1.3431 68.3138 1.5778 68.5781 1.8877C68.7969 2.1429 68.9701 2.42546 69.0977 2.73535C69.2253 3.04525 69.2891 3.39844 69.2891 3.79492C69.2891 4.27344 69.1683 4.74512 68.9268 5.20996C68.6852 5.67025 68.2865 5.99609 67.7305 6.1875C68.1953 6.37435 68.5234 6.64095 68.7148 6.9873C68.9108 7.3291 69.0088 7.85319 69.0088 8.55957V9.23633C69.0088 9.69661 69.027 10.0088 69.0635 10.1729C69.1182 10.4326 69.2458 10.624 69.4463 10.7471V11H67.1289C67.0651 10.7767 67.0195 10.5967 66.9922 10.46C66.9375 10.1774 66.9079 9.88802 66.9033 9.5918L66.8896 8.65527C66.8805 8.0127 66.762 7.58431 66.5342 7.37012C66.3109 7.15592 65.8893 7.04883 65.2695 7.04883H63.0957V11H61.0381V0.923828H65.9805ZM72.6318 7.88965C72.6956 8.34993 72.821 8.69401 73.0078 8.92188C73.3496 9.33659 73.9352 9.54395 74.7646 9.54395C75.2614 9.54395 75.6647 9.48926 75.9746 9.37988C76.5625 9.17025 76.8564 8.7806 76.8564 8.21094C76.8564 7.87826 76.7106 7.62077 76.4189 7.43848C76.1273 7.26074 75.6693 7.10352 75.0449 6.9668L73.9785 6.72754C72.9303 6.49056 72.2057 6.23307 71.8047 5.95508C71.1257 5.49023 70.7861 4.76335 70.7861 3.77441C70.7861 2.87207 71.1143 2.1224 71.7705 1.52539C72.4268 0.928385 73.3906 0.629883 74.6621 0.629883C75.724 0.629883 76.6286 0.912435 77.376 1.47754C78.1279 2.03809 78.5221 2.85384 78.5586 3.9248H76.5352C76.4987 3.31868 76.2344 2.88802 75.7422 2.63281C75.4141 2.46419 75.0062 2.37988 74.5186 2.37988C73.9762 2.37988 73.5433 2.48926 73.2197 2.70801C72.8962 2.92676 72.7344 3.2321 72.7344 3.62402C72.7344 3.98405 72.8939 4.25293 73.2129 4.43066C73.418 4.54915 73.8555 4.68815 74.5254 4.84766L76.2617 5.26465C77.0228 5.44694 77.597 5.69076 77.9844 5.99609C78.5859 6.47005 78.8867 7.15592 78.8867 8.05371C78.8867 8.97428 78.5335 9.73991 77.8271 10.3506C77.1253 10.9567 76.1318 11.2598 74.8467 11.2598C73.5342 11.2598 72.502 10.9613 71.75 10.3643C70.998 9.7627 70.6221 8.93783 70.6221 7.88965H72.6318ZM80.4316 11V0.923828H82.5166V4.76562H86.4541V0.923828H88.5459V11H86.4541V6.50195H82.5166V11H80.4316ZM92.4902 11H90.3984V0.923828H92.4902V11ZM100.133 4.12988C100.133 3.60579 99.9938 3.2321 99.7158 3.00879C99.4424 2.78548 99.0573 2.67383 98.5605 2.67383H96.5986V5.64062H98.5605C99.0573 5.64062 99.4424 5.51986 99.7158 5.27832C99.9938 5.03678 100.133 4.65397 100.133 4.12988ZM102.218 4.11621C102.218 5.30566 101.917 6.14648 101.315 6.63867C100.714 7.13086 99.8548 7.37695 98.7383 7.37695H96.5986V11H94.5068V0.923828H98.8955C99.9072 0.923828 100.714 1.18359 101.315 1.70312C101.917 2.22266 102.218 3.02702 102.218 4.11621ZM111.904 9.49609C112.738 9.49609 113.399 9.18848 113.887 8.57324C114.379 7.95801 114.625 7.08301 114.625 5.94824C114.625 4.81803 114.379 3.94531 113.887 3.33008C113.399 2.71029 112.738 2.40039 111.904 2.40039C111.07 2.40039 110.405 2.70801 109.908 3.32324C109.411 3.93848 109.163 4.81348 109.163 5.94824C109.163 7.08301 109.411 7.95801 109.908 8.57324C110.405 9.18848 111.07 9.49609 111.904 9.49609ZM116.73 5.94824C116.73 7.75749 116.222 9.1429 115.206 10.1045C114.445 10.8883 113.344 11.2803 111.904 11.2803C110.464 11.2803 109.364 10.8883 108.603 10.1045C107.582 9.1429 107.071 7.75749 107.071 5.94824C107.071 4.10254 107.582 2.71712 108.603 1.79199C109.364 1.00814 110.464 0.616211 111.904 0.616211C113.344 0.616211 114.445 1.00814 115.206 1.79199C116.222 2.71712 116.73 4.10254 116.73 5.94824ZM124.018 4.12988C124.018 3.60579 123.879 3.2321 123.601 3.00879C123.327 2.78548 122.942 2.67383 122.445 2.67383H120.483V5.64062H122.445C122.942 5.64062 123.327 5.51986 123.601 5.27832C123.879 5.03678 124.018 4.65397 124.018 4.12988ZM126.103 4.11621C126.103 5.30566 125.802 6.14648 125.2 6.63867C124.599 7.13086 123.74 7.37695 122.623 7.37695H120.483V11H118.392V0.923828H122.78C123.792 0.923828 124.599 1.18359 125.2 1.70312C125.802 2.22266 126.103 3.02702 126.103 4.11621ZM133.355 4.12988C133.355 3.60579 133.216 3.2321 132.938 3.00879C132.665 2.78548 132.28 2.67383 131.783 2.67383H129.821V5.64062H131.783C132.28 5.64062 132.665 5.51986 132.938 5.27832C133.216 5.03678 133.355 4.65397 133.355 4.12988ZM135.44 4.11621C135.44 5.30566 135.14 6.14648 134.538 6.63867C133.937 7.13086 133.077 7.37695 131.961 7.37695H129.821V11H127.729V0.923828H132.118C133.13 0.923828 133.937 1.18359 134.538 1.70312C135.14 2.22266 135.44 3.02702 135.44 4.11621ZM141.477 9.49609C142.311 9.49609 142.971 9.18848 143.459 8.57324C143.951 7.95801 144.197 7.08301 144.197 5.94824C144.197 4.81803 143.951 3.94531 143.459 3.33008C142.971 2.71029 142.311 2.40039 141.477 2.40039C140.643 2.40039 139.977 2.70801 139.48 3.32324C138.984 3.93848 138.735 4.81348 138.735 5.94824C138.735 7.08301 138.984 7.95801 139.48 8.57324C139.977 9.18848 140.643 9.49609 141.477 9.49609ZM146.303 5.94824C146.303 7.75749 145.795 9.1429 144.778 10.1045C144.017 10.8883 142.917 11.2803 141.477 11.2803C140.036 11.2803 138.936 10.8883 138.175 10.1045C137.154 9.1429 136.644 7.75749 136.644 5.94824C136.644 4.10254 137.154 2.71712 138.175 1.79199C138.936 1.00814 140.036 0.616211 141.477 0.616211C142.917 0.616211 144.017 1.00814 144.778 1.79199C145.795 2.71712 146.303 4.10254 146.303 5.94824ZM150.021 2.67383V5.38086H152.407C152.881 5.38086 153.237 5.32617 153.474 5.2168C153.893 5.02539 154.103 4.64714 154.103 4.08203C154.103 3.47135 153.9 3.0612 153.494 2.85156C153.266 2.73307 152.924 2.67383 152.469 2.67383H150.021ZM152.906 0.923828C153.613 0.9375 154.155 1.02409 154.533 1.18359C154.916 1.3431 155.24 1.5778 155.504 1.8877C155.723 2.1429 155.896 2.42546 156.023 2.73535C156.151 3.04525 156.215 3.39844 156.215 3.79492C156.215 4.27344 156.094 4.74512 155.853 5.20996C155.611 5.67025 155.212 5.99609 154.656 6.1875C155.121 6.37435 155.449 6.64095 155.641 6.9873C155.837 7.3291 155.935 7.85319 155.935 8.55957V9.23633C155.935 9.69661 155.953 10.0088 155.989 10.1729C156.044 10.4326 156.172 10.624 156.372 10.7471V11H154.055C153.991 10.7767 153.945 10.5967 153.918 10.46C153.863 10.1774 153.834 9.88802 153.829 9.5918L153.815 8.65527C153.806 8.0127 153.688 7.58431 153.46 7.37012C153.237 7.15592 152.815 7.04883 152.195 7.04883H150.021V11H147.964V0.923828H152.906ZM165.354 0.923828V2.70801H162.34V11H160.221V2.70801H157.192V0.923828H165.354ZM166.592 0.923828H168.731V7.11719C168.731 7.8099 168.813 8.31576 168.978 8.63477C169.233 9.19987 169.789 9.48242 170.646 9.48242C171.498 9.48242 172.051 9.19987 172.307 8.63477C172.471 8.31576 172.553 7.8099 172.553 7.11719V0.923828H174.692V7.11719C174.692 8.18815 174.526 9.02214 174.193 9.61914C173.574 10.7129 172.391 11.2598 170.646 11.2598C168.9 11.2598 167.715 10.7129 167.091 9.61914C166.758 9.02214 166.592 8.18815 166.592 7.11719V0.923828ZM176.675 0.923828H178.883L182.896 7.95801V0.923828H184.857V11H182.752L178.637 3.84277V11H176.675V0.923828ZM188.754 11H186.662V0.923828H188.754V11ZM198.044 0.923828V2.70801H195.029V11H192.91V2.70801H189.882V0.923828H198.044ZM201.209 11H199.117V0.923828H201.209V11ZM210.629 2.70801H205.297V4.84766H210.191V6.59766H205.297V9.18848H210.875V11H203.239V0.923828H210.629V2.70801ZM214.04 7.88965C214.104 8.34993 214.229 8.69401 214.416 8.92188C214.758 9.33659 215.343 9.54395 216.173 9.54395C216.67 9.54395 217.073 9.48926 217.383 9.37988C217.971 9.17025 218.265 8.7806 218.265 8.21094C218.265 7.87826 218.119 7.62077 217.827 7.43848C217.535 7.26074 217.077 7.10352 216.453 6.9668L215.387 6.72754C214.339 6.49056 213.614 6.23307 213.213 5.95508C212.534 5.49023 212.194 4.76335 212.194 3.77441C212.194 2.87207 212.522 2.1224 213.179 1.52539C213.835 0.928385 214.799 0.629883 216.07 0.629883C217.132 0.629883 218.037 0.912435 218.784 1.47754C219.536 2.03809 219.93 2.85384 219.967 3.9248H217.943C217.907 3.31868 217.643 2.88802 217.15 2.63281C216.822 2.46419 216.414 2.37988 215.927 2.37988C215.384 2.37988 214.951 2.48926 214.628 2.70801C214.304 2.92676 214.143 3.2321 214.143 3.62402C214.143 3.98405 214.302 4.25293 214.621 4.43066C214.826 4.54915 215.264 4.68815 215.934 4.84766L217.67 5.26465C218.431 5.44694 219.005 5.69076 219.393 5.99609C219.994 6.47005 220.295 7.15592 220.295 8.05371C220.295 8.97428 219.942 9.73991 219.235 10.3506C218.534 10.9567 217.54 11.2598 216.255 11.2598C214.942 11.2598 213.91 10.9613 213.158 10.3643C212.406 9.7627 212.03 8.93783 212.03 7.88965H214.04ZM227.985 7.19238H230.542L229.284 3.22754L227.985 7.19238ZM228.115 0.923828H230.494L234.062 11H231.779L231.13 8.92871H227.418L226.721 11H224.52L228.115 0.923828ZM240.208 0.923828H242.396L238.957 11H236.968L233.563 0.923828H235.812L238 8.57324L240.208 0.923828ZM245.362 7.19238H247.919L246.661 3.22754L245.362 7.19238ZM245.492 0.923828H247.871L251.439 11H249.156L248.507 8.92871H244.795L244.098 11H241.896L245.492 0.923828ZM254.652 11H252.561V0.923828H254.652V11ZM256.621 0.923828H258.727V9.18848H263.717V11H256.621V0.923828ZM267.935 7.19238H270.491L269.233 3.22754L267.935 7.19238ZM268.064 0.923828H270.443L274.012 11H271.729L271.079 8.92871H267.367L266.67 11H264.469L268.064 0.923828ZM277.341 2.67383V4.89551H279.815C280.257 4.89551 280.615 4.81348 280.889 4.64941C281.167 4.48079 281.306 4.18457 281.306 3.76074C281.306 3.29134 281.123 2.98145 280.759 2.83105C280.444 2.72624 280.043 2.67383 279.556 2.67383H277.341ZM277.341 6.56348V9.25H279.815C280.257 9.25 280.602 9.19076 280.848 9.07227C281.294 8.85352 281.518 8.43424 281.518 7.81445C281.518 7.29036 281.301 6.93034 280.868 6.73438C280.627 6.625 280.287 6.56803 279.85 6.56348H277.341ZM280.226 0.923828C281.461 0.942057 282.336 1.2998 282.851 1.99707C283.16 2.42546 283.315 2.93815 283.315 3.53516C283.315 4.15039 283.16 4.64486 282.851 5.01855C282.677 5.22819 282.422 5.4196 282.085 5.59277C282.6 5.77962 282.987 6.07585 283.247 6.48145C283.511 6.88704 283.644 7.37923 283.644 7.95801C283.644 8.55501 283.493 9.09049 283.192 9.56445C283.001 9.87891 282.762 10.1432 282.475 10.3574C282.151 10.6035 281.768 10.7721 281.326 10.8633C280.889 10.9544 280.412 11 279.897 11H275.331V0.923828H280.226ZM285.414 0.923828H287.52V9.18848H292.51V11H285.414V0.923828ZM301.424 2.70801H296.092V4.84766H300.986V6.59766H296.092V9.18848H301.67V11H294.034V0.923828H301.424V2.70801ZM303.782 0.958008H305.922V3.51465L305.368 8.21777H304.35L303.782 3.51465V0.958008ZM303.83 9.02441H305.867V11H303.83V9.02441Z" fill="#333333"/>
<path d="M83.4258 43.0439C83.4258 41.2848 83.8975 39.929 84.8408 38.9766C85.6611 38.1471 86.7048 37.7324 87.9717 37.7324C89.667 37.7324 90.9066 38.2884 91.6904 39.4004C92.1234 40.0247 92.3558 40.6514 92.3877 41.2803H90.2822C90.1455 40.7972 89.9701 40.4326 89.7559 40.1865C89.373 39.749 88.8057 39.5303 88.0537 39.5303C87.2881 39.5303 86.6842 39.8402 86.2422 40.46C85.8001 41.0752 85.5791 41.9479 85.5791 43.0781C85.5791 44.2083 85.8115 45.056 86.2764 45.6211C86.7458 46.1816 87.3405 46.4619 88.0605 46.4619C88.7988 46.4619 89.3617 46.2204 89.749 45.7373C89.9632 45.4775 90.141 45.0879 90.2822 44.5684H92.3672C92.1849 45.6667 91.7178 46.5599 90.9658 47.248C90.2184 47.9362 89.2591 48.2803 88.0879 48.2803C86.6387 48.2803 85.4993 47.8154 84.6699 46.8857C83.8405 45.9515 83.4258 44.6709 83.4258 43.0439ZM98.4375 46.4961C99.2715 46.4961 99.9323 46.1885 100.42 45.5732C100.912 44.958 101.158 44.083 101.158 42.9482C101.158 41.818 100.912 40.9453 100.42 40.3301C99.9323 39.7103 99.2715 39.4004 98.4375 39.4004C97.6035 39.4004 96.9382 39.708 96.4414 40.3232C95.9447 40.9385 95.6963 41.8135 95.6963 42.9482C95.6963 44.083 95.9447 44.958 96.4414 45.5732C96.9382 46.1885 97.6035 46.4961 98.4375 46.4961ZM103.264 42.9482C103.264 44.7575 102.756 46.1429 101.739 47.1045C100.978 47.8883 99.8776 48.2803 98.4375 48.2803C96.9974 48.2803 95.8968 47.8883 95.1357 47.1045C94.1149 46.1429 93.6045 44.7575 93.6045 42.9482C93.6045 41.1025 94.1149 39.7171 95.1357 38.792C95.8968 38.0081 96.9974 37.6162 98.4375 37.6162C99.8776 37.6162 100.978 38.0081 101.739 38.792C102.756 39.7171 103.264 41.1025 103.264 42.9482ZM104.843 37.9238H107.051L111.063 44.958V37.9238H113.025V48H110.92L106.805 40.8428V48H104.843V37.9238ZM122.315 37.9238V39.708H119.301V48H117.182V39.708H114.153V37.9238H122.315ZM125.269 44.1924H127.825L126.567 40.2275L125.269 44.1924ZM125.398 37.9238H127.777L131.346 48H129.062L128.413 45.9287H124.701L124.004 48H121.803L125.398 37.9238ZM132.193 43.0439C132.193 41.2848 132.665 39.929 133.608 38.9766C134.429 38.1471 135.472 37.7324 136.739 37.7324C138.435 37.7324 139.674 38.2884 140.458 39.4004C140.891 40.0247 141.123 40.6514 141.155 41.2803H139.05C138.913 40.7972 138.738 40.4326 138.523 40.1865C138.141 39.749 137.573 39.5303 136.821 39.5303C136.056 39.5303 135.452 39.8402 135.01 40.46C134.568 41.0752 134.347 41.9479 134.347 43.0781C134.347 44.2083 134.579 45.056 135.044 45.6211C135.513 46.1816 136.108 46.4619 136.828 46.4619C137.566 46.4619 138.129 46.2204 138.517 45.7373C138.731 45.4775 138.909 45.0879 139.05 44.5684H141.135C140.952 45.6667 140.485 46.5599 139.733 47.248C138.986 47.9362 138.027 48.2803 136.855 48.2803C135.406 48.2803 134.267 47.8154 133.438 46.8857C132.608 45.9515 132.193 44.6709 132.193 43.0439ZM150.069 37.9238V39.708H147.055V48H144.936V39.708H141.907V37.9238H150.069ZM211.388 44.1924H213.944L212.687 40.2275L211.388 44.1924ZM211.518 37.9238H213.896L217.465 48H215.182L214.532 45.9287H210.82L210.123 48H207.922L211.518 37.9238ZM225.032 37.9238V39.708H222.018V48H219.898V39.708H216.87V37.9238H225.032Z" fill="#333333"/>
<path d="M156.728 44.8896C156.791 45.3499 156.917 45.694 157.104 45.9219C157.445 46.3366 158.031 46.5439 158.86 46.5439C159.357 46.5439 159.76 46.4893 160.07 46.3799C160.658 46.1702 160.952 45.7806 160.952 45.2109C160.952 44.8783 160.806 44.6208 160.515 44.4385C160.223 44.2607 159.765 44.1035 159.141 43.9668L158.074 43.7275C157.026 43.4906 156.301 43.2331 155.9 42.9551C155.221 42.4902 154.882 41.7633 154.882 40.7744C154.882 39.8721 155.21 39.1224 155.866 38.5254C156.522 37.9284 157.486 37.6299 158.758 37.6299C159.82 37.6299 160.724 37.9124 161.472 38.4775C162.224 39.0381 162.618 39.8538 162.654 40.9248H160.631C160.594 40.3187 160.33 39.888 159.838 39.6328C159.51 39.4642 159.102 39.3799 158.614 39.3799C158.072 39.3799 157.639 39.4893 157.315 39.708C156.992 39.9268 156.83 40.2321 156.83 40.624C156.83 40.984 156.99 41.2529 157.309 41.4307C157.514 41.5492 157.951 41.6882 158.621 41.8477L160.357 42.2646C161.118 42.4469 161.693 42.6908 162.08 42.9961C162.682 43.4701 162.982 44.1559 162.982 45.0537C162.982 45.9743 162.629 46.7399 161.923 47.3506C161.221 47.9567 160.228 48.2598 158.942 48.2598C157.63 48.2598 156.598 47.9613 155.846 47.3643C155.094 46.7627 154.718 45.9378 154.718 44.8896H156.728ZM171.992 39.708H166.66V41.8477H171.555V43.5977H166.66V46.1885H172.238V48H164.603V37.9238H171.992V39.708ZM175.984 39.6738V42.3809H178.37C178.844 42.3809 179.2 42.3262 179.437 42.2168C179.856 42.0254 180.065 41.6471 180.065 41.082C180.065 40.4714 179.863 40.0612 179.457 39.8516C179.229 39.7331 178.887 39.6738 178.432 39.6738H175.984ZM178.869 37.9238C179.576 37.9375 180.118 38.0241 180.496 38.1836C180.879 38.3431 181.202 38.5778 181.467 38.8877C181.686 39.1429 181.859 39.4255 181.986 39.7354C182.114 40.0452 182.178 40.3984 182.178 40.7949C182.178 41.2734 182.057 41.7451 181.815 42.21C181.574 42.6702 181.175 42.9961 180.619 43.1875C181.084 43.3743 181.412 43.641 181.604 43.9873C181.799 44.3291 181.897 44.8532 181.897 45.5596V46.2363C181.897 46.6966 181.916 47.0088 181.952 47.1729C182.007 47.4326 182.134 47.624 182.335 47.7471V48H180.018C179.954 47.7767 179.908 47.5967 179.881 47.46C179.826 47.1774 179.797 46.888 179.792 46.5918L179.778 45.6553C179.769 45.0127 179.651 44.5843 179.423 44.3701C179.2 44.1559 178.778 44.0488 178.158 44.0488H175.984V48H173.927V37.9238H178.869ZM190.675 37.9238H193.703V48H191.741V41.1846C191.741 40.9886 191.743 40.7152 191.748 40.3643C191.753 40.0088 191.755 39.7354 191.755 39.5439L189.848 48H187.804L185.91 39.5439C185.91 39.7354 185.912 40.0088 185.917 40.3643C185.922 40.7152 185.924 40.9886 185.924 41.1846V48H183.962V37.9238H187.024L188.856 45.8467L190.675 37.9238ZM198.413 44.1924H200.97L199.712 40.2275L198.413 44.1924ZM198.543 37.9238H200.922L204.49 48H202.207L201.558 45.9287H197.846L197.148 48H194.947L198.543 37.9238ZM76.2344 64H74.1426V53.9238H76.2344V64ZM78.1689 53.9238H80.377L84.3896 60.958V53.9238H86.3516V64H84.2461L80.1309 56.8428V64H78.1689V53.9238ZM88.3203 53.9375H95.4639V55.708H90.4121V58.0254H94.835V59.7754H90.4121V64H88.3203V53.9375ZM101.336 62.4961C102.17 62.4961 102.831 62.1885 103.318 61.5732C103.811 60.958 104.057 60.083 104.057 58.9482C104.057 57.818 103.811 56.9453 103.318 56.3301C102.831 55.7103 102.17 55.4004 101.336 55.4004C100.502 55.4004 99.8366 55.708 99.3398 56.3232C98.8431 56.9385 98.5947 57.8135 98.5947 58.9482C98.5947 60.083 98.8431 60.958 99.3398 61.5732C99.8366 62.1885 100.502 62.4961 101.336 62.4961ZM106.162 58.9482C106.162 60.7575 105.654 62.1429 104.638 63.1045C103.877 63.8883 102.776 64.2803 101.336 64.2803C99.8958 64.2803 98.7952 63.8883 98.0342 63.1045C97.0133 62.1429 96.5029 60.7575 96.5029 58.9482C96.5029 57.1025 97.0133 55.7171 98.0342 54.792C98.7952 54.0081 99.8958 53.6162 101.336 53.6162C102.776 53.6162 103.877 54.0081 104.638 54.792C105.654 55.7171 106.162 57.1025 106.162 58.9482ZM114.823 57.793C114.823 57.5514 114.75 57.3486 114.604 57.1846C114.459 57.0205 114.263 56.9385 114.017 56.9385C113.543 56.9385 113.135 57.2347 112.793 57.8271C112.451 58.415 112.28 58.9847 112.28 59.5361C112.28 59.8688 112.355 60.1377 112.506 60.3428C112.661 60.5479 112.877 60.6504 113.155 60.6504C113.643 60.6504 114.042 60.2812 114.352 59.543C114.666 58.8001 114.823 58.2168 114.823 57.793ZM112.718 61.6553C112.166 61.6553 111.706 61.457 111.337 61.0605C110.972 60.6641 110.79 60.1104 110.79 59.3994C110.79 58.5745 111.07 57.8021 111.631 57.082C112.191 56.362 112.88 56.002 113.695 56.002C114.174 56.002 114.545 56.1341 114.81 56.3984C115.01 56.6035 115.145 56.8382 115.213 57.1025L115.459 56.2412H116.751L115.876 59.208C115.808 59.4495 115.757 59.6296 115.726 59.748C115.698 59.862 115.685 59.9622 115.685 60.0488C115.685 60.1855 115.73 60.3154 115.821 60.4385C115.912 60.557 116.058 60.6162 116.259 60.6162C116.651 60.6162 117.043 60.361 117.435 59.8506C117.831 59.3356 118.029 58.6543 118.029 57.8066C118.029 56.5534 117.492 55.6533 116.416 55.1064C115.742 54.7601 114.983 54.5869 114.14 54.5869C112.59 54.5869 111.346 55.0609 110.407 56.0088C109.56 56.8656 109.136 57.8932 109.136 59.0918C109.136 60.4225 109.632 61.4775 110.626 62.2568C111.506 62.945 112.579 63.2891 113.846 63.2891C114.712 63.2891 115.521 63.1296 116.272 62.8105C116.683 62.6419 117.106 62.4027 117.544 62.0928L117.708 61.9766L118.207 62.7422C117.56 63.2435 116.858 63.6263 116.102 63.8906C115.35 64.1504 114.568 64.2803 113.757 64.2803C111.866 64.2803 110.4 63.6924 109.361 62.5166C108.5 61.5413 108.069 60.3861 108.069 59.0508C108.069 57.556 108.607 56.2891 109.683 55.25C110.813 54.1517 112.26 53.6025 114.023 53.6025C115.459 53.6025 116.648 53.9785 117.592 54.7305C118.585 55.5234 119.082 56.5762 119.082 57.8887C119.082 58.9232 118.768 59.8118 118.139 60.5547C117.51 61.293 116.792 61.6621 115.985 61.6621C115.566 61.6621 115.243 61.5436 115.015 61.3066C114.791 61.0697 114.68 60.8258 114.68 60.5752C114.68 60.5433 114.68 60.5091 114.68 60.4727C114.684 60.4316 114.689 60.3883 114.693 60.3428C114.52 60.6709 114.326 60.9329 114.112 61.1289C113.725 61.4798 113.26 61.6553 112.718 61.6553ZM128.755 53.9238V55.708H125.74V64H123.621V55.708H120.593V53.9238H128.755ZM129.979 64V53.9238H132.063V57.7656H136.001V53.9238H138.093V64H136.001V59.502H132.063V64H129.979ZM147.561 55.708H142.229V57.8477H147.123V59.5977H142.229V62.1885H147.807V64H140.171V53.9238H147.561V55.708ZM150.972 60.8896C151.035 61.3499 151.161 61.694 151.348 61.9219C151.689 62.3366 152.275 62.5439 153.104 62.5439C153.601 62.5439 154.005 62.4893 154.314 62.3799C154.902 62.1702 155.196 61.7806 155.196 61.2109C155.196 60.8783 155.05 60.6208 154.759 60.4385C154.467 60.2607 154.009 60.1035 153.385 59.9668L152.318 59.7275C151.27 59.4906 150.546 59.2331 150.145 58.9551C149.465 58.4902 149.126 57.7633 149.126 56.7744C149.126 55.8721 149.454 55.1224 150.11 54.5254C150.767 53.9284 151.73 53.6299 153.002 53.6299C154.064 53.6299 154.968 53.9124 155.716 54.4775C156.468 55.0381 156.862 55.8538 156.898 56.9248H154.875C154.839 56.3187 154.574 55.888 154.082 55.6328C153.754 55.4642 153.346 55.3799 152.858 55.3799C152.316 55.3799 151.883 55.4893 151.56 55.708C151.236 55.9268 151.074 56.2321 151.074 56.624C151.074 56.984 151.234 57.2529 151.553 57.4307C151.758 57.5492 152.195 57.6882 152.865 57.8477L154.602 58.2646C155.363 58.4469 155.937 58.6908 156.324 58.9961C156.926 59.4701 157.227 60.1559 157.227 61.0537C157.227 61.9743 156.873 62.7399 156.167 63.3506C155.465 63.9567 154.472 64.2598 153.187 64.2598C151.874 64.2598 150.842 63.9613 150.09 63.3643C149.338 62.7627 148.962 61.9378 148.962 60.8896H150.972ZM166.236 55.708H160.904V57.8477H165.799V59.5977H160.904V62.1885H166.482V64H158.847V53.9238H166.236V55.708ZM170.229 55.6738V58.3809H172.614C173.088 58.3809 173.444 58.3262 173.681 58.2168C174.1 58.0254 174.31 57.6471 174.31 57.082C174.31 56.4714 174.107 56.0612 173.701 55.8516C173.473 55.7331 173.132 55.6738 172.676 55.6738H170.229ZM173.113 53.9238C173.82 53.9375 174.362 54.0241 174.74 54.1836C175.123 54.3431 175.447 54.5778 175.711 54.8877C175.93 55.1429 176.103 55.4255 176.23 55.7354C176.358 56.0452 176.422 56.3984 176.422 56.7949C176.422 57.2734 176.301 57.7451 176.06 58.21C175.818 58.6702 175.419 58.9961 174.863 59.1875C175.328 59.3743 175.656 59.641 175.848 59.9873C176.044 60.3291 176.142 60.8532 176.142 61.5596V62.2363C176.142 62.6966 176.16 63.0088 176.196 63.1729C176.251 63.4326 176.379 63.624 176.579 63.7471V64H174.262C174.198 63.7767 174.152 63.5967 174.125 63.46C174.07 63.1774 174.041 62.888 174.036 62.5918L174.022 61.6553C174.013 61.0127 173.895 60.5843 173.667 60.3701C173.444 60.1559 173.022 60.0488 172.402 60.0488H170.229V64H168.171V53.9238H173.113ZM184.919 53.9238H187.947V64H185.985V57.1846C185.985 56.9886 185.988 56.7152 185.992 56.3643C185.997 56.0088 185.999 55.7354 185.999 55.5439L184.092 64H182.048L180.154 55.5439C180.154 55.7354 180.157 56.0088 180.161 56.3643C180.166 56.7152 180.168 56.9886 180.168 57.1846V64H178.206V53.9238H181.269L183.101 61.8467L184.919 53.9238ZM192.657 60.1924H195.214L193.956 56.2275L192.657 60.1924ZM192.787 53.9238H195.166L198.734 64H196.451L195.802 61.9287H192.09L191.393 64H189.191L192.787 53.9238ZM199.828 61.9629H201.899V64H199.828V61.9629ZM208.373 62.4961C209.207 62.4961 209.868 62.1885 210.355 61.5732C210.848 60.958 211.094 60.083 211.094 58.9482C211.094 57.818 210.848 56.9453 210.355 56.3301C209.868 55.7103 209.207 55.4004 208.373 55.4004C207.539 55.4004 206.874 55.708 206.377 56.3232C205.88 56.9385 205.632 57.8135 205.632 58.9482C205.632 60.083 205.88 60.958 206.377 61.5732C206.874 62.1885 207.539 62.4961 208.373 62.4961ZM213.199 58.9482C213.199 60.7575 212.691 62.1429 211.675 63.1045C210.914 63.8883 209.813 64.2803 208.373 64.2803C206.933 64.2803 205.832 63.8883 205.071 63.1045C204.05 62.1429 203.54 60.7575 203.54 58.9482C203.54 57.1025 204.05 55.7171 205.071 54.792C205.832 54.0081 206.933 53.6162 208.373 53.6162C209.813 53.6162 210.914 54.0081 211.675 54.792C212.691 55.7171 213.199 57.1025 213.199 58.9482ZM216.918 55.6738V58.3809H219.304C219.778 58.3809 220.133 58.3262 220.37 58.2168C220.789 58.0254 220.999 57.6471 220.999 57.082C220.999 56.4714 220.796 56.0612 220.391 55.8516C220.163 55.7331 219.821 55.6738 219.365 55.6738H216.918ZM219.803 53.9238C220.509 53.9375 221.051 54.0241 221.43 54.1836C221.812 54.3431 222.136 54.5778 222.4 54.8877C222.619 55.1429 222.792 55.4255 222.92 55.7354C223.048 56.0452 223.111 56.3984 223.111 56.7949C223.111 57.2734 222.991 57.7451 222.749 58.21C222.507 58.6702 222.109 58.9961 221.553 59.1875C222.018 59.3743 222.346 59.641 222.537 59.9873C222.733 60.3291 222.831 60.8532 222.831 61.5596V62.2363C222.831 62.6966 222.849 63.0088 222.886 63.1729C222.94 63.4326 223.068 63.624 223.269 63.7471V64H220.951C220.887 63.7767 220.842 63.5967 220.814 63.46C220.76 63.1774 220.73 62.888 220.726 62.5918L220.712 61.6553C220.703 61.0127 220.584 60.5843 220.356 60.3701C220.133 60.1559 219.712 60.0488 219.092 60.0488H216.918V64H214.86V53.9238H219.803ZM231.704 57.0684C231.545 56.3802 231.155 55.8994 230.535 55.626C230.189 55.4756 229.804 55.4004 229.38 55.4004C228.569 55.4004 227.901 55.708 227.377 56.3232C226.857 56.9339 226.598 57.8545 226.598 59.085C226.598 60.3245 226.88 61.2018 227.445 61.7168C228.01 62.2318 228.653 62.4893 229.373 62.4893C230.079 62.4893 230.658 62.2865 231.109 61.8809C231.561 61.4707 231.839 60.9352 231.943 60.2744H229.612V58.5928H233.81V64H232.415L232.203 62.7422C231.798 63.2207 231.433 63.5579 231.109 63.7539C230.553 64.0957 229.87 64.2666 229.059 64.2666C227.723 64.2666 226.63 63.804 225.777 62.8789C224.889 61.9492 224.444 60.6777 224.444 59.0645C224.444 57.4329 224.893 56.125 225.791 55.1406C226.689 54.1562 227.876 53.6641 229.353 53.6641C230.633 53.6641 231.661 53.9899 232.436 54.6416C233.215 55.2887 233.661 56.0977 233.775 57.0684H231.704Z" fill="#C42C2D"/>
</svg>
