<svg width="307" height="65" viewBox="0 0 307 65" fill="none" xmlns="http://www.w3.org/2000/svg">
<path d="M2.59082 7.88965C2.65462 8.34993 2.77995 8.69401 2.9668 8.92188C3.30859 9.33659 3.89421 9.54395 4.72363 9.54395C5.22038 9.54395 5.6237 9.48926 5.93359 9.37988C6.52148 9.17025 6.81543 8.7806 6.81543 8.21094C6.81543 7.87826 6.6696 7.62077 6.37793 7.43848C6.08626 7.26074 5.62826 7.10352 5.00391 6.9668L3.9375 6.72754C2.88932 6.49056 2.16471 6.23307 1.76367 5.95508C1.08464 5.49023 0.745117 4.76335 0.745117 3.77441C0.745117 2.87207 1.07324 2.1224 1.72949 1.52539C2.38574 0.928385 3.34961 0.629883 4.62109 0.629883C5.68294 0.629883 6.58757 0.912435 7.33496 1.47754C8.08691 2.03809 8.48112 2.85384 8.51758 3.9248H6.49414C6.45768 3.31868 6.19336 2.88802 5.70117 2.63281C5.37305 2.46419 4.96517 2.37988 4.47754 2.37988C3.93522 2.37988 3.50228 2.48926 3.17871 2.70801C2.85514 2.92676 2.69336 3.2321 2.69336 3.62402C2.69336 3.98405 2.85286 4.25293 3.17188 4.43066C3.37695 4.54915 3.81445 4.68815 4.48438 4.84766L6.2207 5.26465C6.98177 5.44694 7.55599 5.69076 7.94336 5.99609C8.54492 6.47005 8.8457 7.15592 8.8457 8.05371C8.8457 8.97428 8.49251 9.73991 7.78613 10.3506C7.08431 10.9567 6.09082 11.2598 4.80566 11.2598C3.49316 11.2598 2.46094 10.9613 1.70898 10.3643C0.957031 9.7627 0.581055 8.93783 0.581055 7.88965H2.59082ZM16.0781 4.12988C16.0781 3.60579 15.9391 3.2321 15.6611 3.00879C15.3877 2.78548 15.0026 2.67383 14.5059 2.67383H12.5439V5.64062H14.5059C15.0026 5.64062 15.3877 5.51986 15.6611 5.27832C15.9391 5.03678 16.0781 4.65397 16.0781 4.12988ZM18.1631 4.11621C18.1631 5.30566 17.8623 6.14648 17.2607 6.63867C16.6592 7.13086 15.8001 7.37695 14.6836 7.37695H12.5439V11H10.4521V0.923828H14.8408C15.8525 0.923828 16.6592 1.18359 17.2607 1.70312C17.8623 2.22266 18.1631 3.02702 18.1631 4.11621ZM24.1992 9.49609C25.0332 9.49609 25.694 9.18848 26.1816 8.57324C26.6738 7.95801 26.9199 7.08301 26.9199 5.94824C26.9199 4.81803 26.6738 3.94531 26.1816 3.33008C25.694 2.71029 25.0332 2.40039 24.1992 2.40039C23.3652 2.40039 22.6999 2.70801 22.2031 3.32324C21.7064 3.93848 21.458 4.81348 21.458 5.94824C21.458 7.08301 21.7064 7.95801 22.2031 8.57324C22.6999 9.18848 23.3652 9.49609 24.1992 9.49609ZM29.0254 5.94824C29.0254 7.75749 28.5173 9.1429 27.501 10.1045C26.7399 10.8883 25.6393 11.2803 24.1992 11.2803C22.7591 11.2803 21.6585 10.8883 20.8975 10.1045C19.8766 9.1429 19.3662 7.75749 19.3662 5.94824C19.3662 4.10254 19.8766 2.71712 20.8975 1.79199C21.6585 1.00814 22.7591 0.616211 24.1992 0.616211C25.6393 0.616211 26.7399 1.00814 27.501 1.79199C28.5173 2.71712 29.0254 4.10254 29.0254 5.94824ZM30.6045 0.923828H32.8125L36.8252 7.95801V0.923828H38.7871V11H36.6816L32.5664 3.84277V11H30.6045V0.923828ZM42.2803 7.88965C42.3441 8.34993 42.4694 8.69401 42.6562 8.92188C42.998 9.33659 43.5837 9.54395 44.4131 9.54395C44.9098 9.54395 45.3132 9.48926 45.623 9.37988C46.2109 9.17025 46.5049 8.7806 46.5049 8.21094C46.5049 7.87826 46.359 7.62077 46.0674 7.43848C45.7757 7.26074 45.3177 7.10352 44.6934 6.9668L43.627 6.72754C42.5788 6.49056 41.8542 6.23307 41.4531 5.95508C40.7741 5.49023 40.4346 4.76335 40.4346 3.77441C40.4346 2.87207 40.7627 2.1224 41.4189 1.52539C42.0752 0.928385 43.0391 0.629883 44.3105 0.629883C45.3724 0.629883 46.277 0.912435 47.0244 1.47754C47.7764 2.03809 48.1706 2.85384 48.207 3.9248H46.1836C46.1471 3.31868 45.8828 2.88802 45.3906 2.63281C45.0625 2.46419 44.6546 2.37988 44.167 2.37988C43.6247 2.37988 43.1917 2.48926 42.8682 2.70801C42.5446 2.92676 42.3828 3.2321 42.3828 3.62402C42.3828 3.98405 42.5423 4.25293 42.8613 4.43066C43.0664 4.54915 43.5039 4.68815 44.1738 4.84766L45.9102 5.26465C46.6712 5.44694 47.2454 5.69076 47.6328 5.99609C48.2344 6.47005 48.5352 7.15592 48.5352 8.05371C48.5352 8.97428 48.182 9.73991 47.4756 10.3506C46.7738 10.9567 45.7803 11.2598 44.4951 11.2598C43.1826 11.2598 42.1504 10.9613 41.3984 10.3643C40.6465 9.7627 40.2705 8.93783 40.2705 7.88965H42.2803ZM54.5508 9.49609C55.3848 9.49609 56.0456 9.18848 56.5332 8.57324C57.0254 7.95801 57.2715 7.08301 57.2715 5.94824C57.2715 4.81803 57.0254 3.94531 56.5332 3.33008C56.0456 2.71029 55.3848 2.40039 54.5508 2.40039C53.7168 2.40039 53.0514 2.70801 52.5547 3.32324C52.0579 3.93848 51.8096 4.81348 51.8096 5.94824C51.8096 7.08301 52.0579 7.95801 52.5547 8.57324C53.0514 9.18848 53.7168 9.49609 54.5508 9.49609ZM59.377 5.94824C59.377 7.75749 58.8688 9.1429 57.8525 10.1045C57.0915 10.8883 55.9909 11.2803 54.5508 11.2803C53.1107 11.2803 52.0101 10.8883 51.249 10.1045C50.2282 9.1429 49.7178 7.75749 49.7178 5.94824C49.7178 4.10254 50.2282 2.71712 51.249 1.79199C52.0101 1.00814 53.1107 0.616211 54.5508 0.616211C55.9909 0.616211 57.0915 1.00814 57.8525 1.79199C58.8688 2.71712 59.377 4.10254 59.377 5.94824ZM63.0957 2.67383V5.38086H65.4814C65.9554 5.38086 66.3109 5.32617 66.5479 5.2168C66.9671 5.02539 67.1768 4.64714 67.1768 4.08203C67.1768 3.47135 66.974 3.0612 66.5684 2.85156C66.3405 2.73307 65.9987 2.67383 65.543 2.67383H63.0957ZM65.9805 0.923828C66.6868 0.9375 67.2292 1.02409 67.6074 1.18359C67.9902 1.3431 68.3138 1.5778 68.5781 1.8877C68.7969 2.1429 68.9701 2.42546 69.0977 2.73535C69.2253 3.04525 69.2891 3.39844 69.2891 3.79492C69.2891 4.27344 69.1683 4.74512 68.9268 5.20996C68.6852 5.67025 68.2865 5.99609 67.7305 6.1875C68.1953 6.37435 68.5234 6.64095 68.7148 6.9873C68.9108 7.3291 69.0088 7.85319 69.0088 8.55957V9.23633C69.0088 9.69661 69.027 10.0088 69.0635 10.1729C69.1182 10.4326 69.2458 10.624 69.4463 10.7471V11H67.1289C67.0651 10.7767 67.0195 10.5967 66.9922 10.46C66.9375 10.1774 66.9079 9.88802 66.9033 9.5918L66.8896 8.65527C66.8805 8.0127 66.762 7.58431 66.5342 7.37012C66.3109 7.15592 65.8893 7.04883 65.2695 7.04883H63.0957V11H61.0381V0.923828H65.9805ZM72.6318 7.88965C72.6956 8.34993 72.821 8.69401 73.0078 8.92188C73.3496 9.33659 73.9352 9.54395 74.7646 9.54395C75.2614 9.54395 75.6647 9.48926 75.9746 9.37988C76.5625 9.17025 76.8564 8.7806 76.8564 8.21094C76.8564 7.87826 76.7106 7.62077 76.4189 7.43848C76.1273 7.26074 75.6693 7.10352 75.0449 6.9668L73.9785 6.72754C72.9303 6.49056 72.2057 6.23307 71.8047 5.95508C71.1257 5.49023 70.7861 4.76335 70.7861 3.77441C70.7861 2.87207 71.1143 2.1224 71.7705 1.52539C72.4268 0.928385 73.3906 0.629883 74.6621 0.629883C75.724 0.629883 76.6286 0.912435 77.376 1.47754C78.1279 2.03809 78.5221 2.85384 78.5586 3.9248H76.5352C76.4987 3.31868 76.2344 2.88802 75.7422 2.63281C75.4141 2.46419 75.0062 2.37988 74.5186 2.37988C73.9762 2.37988 73.5433 2.48926 73.2197 2.70801C72.8962 2.92676 72.7344 3.2321 72.7344 3.62402C72.7344 3.98405 72.8939 4.25293 73.2129 4.43066C73.418 4.54915 73.8555 4.68815 74.5254 4.84766L76.2617 5.26465C77.0228 5.44694 77.597 5.69076 77.9844 5.99609C78.5859 6.47005 78.8867 7.15592 78.8867 8.05371C78.8867 8.97428 78.5335 9.73991 77.8271 10.3506C77.1253 10.9567 76.1318 11.2598 74.8467 11.2598C73.5342 11.2598 72.502 10.9613 71.75 10.3643C70.998 9.7627 70.6221 8.93783 70.6221 7.88965H72.6318ZM80.4316 11V0.923828H82.5166V4.76562H86.4541V0.923828H88.5459V11H86.4541V6.50195H82.5166V11H80.4316ZM92.4902 11H90.3984V0.923828H92.4902V11ZM100.133 4.12988C100.133 3.60579 99.9938 3.2321 99.7158 3.00879C99.4424 2.78548 99.0573 2.67383 98.5605 2.67383H96.5986V5.64062H98.5605C99.0573 5.64062 99.4424 5.51986 99.7158 5.27832C99.9938 5.03678 100.133 4.65397 100.133 4.12988ZM102.218 4.11621C102.218 5.30566 101.917 6.14648 101.315 6.63867C100.714 7.13086 99.8548 7.37695 98.7383 7.37695H96.5986V11H94.5068V0.923828H98.8955C99.9072 0.923828 100.714 1.18359 101.315 1.70312C101.917 2.22266 102.218 3.02702 102.218 4.11621ZM111.904 9.49609C112.738 9.49609 113.399 9.18848 113.887 8.57324C114.379 7.95801 114.625 7.08301 114.625 5.94824C114.625 4.81803 114.379 3.94531 113.887 3.33008C113.399 2.71029 112.738 2.40039 111.904 2.40039C111.07 2.40039 110.405 2.70801 109.908 3.32324C109.411 3.93848 109.163 4.81348 109.163 5.94824C109.163 7.08301 109.411 7.95801 109.908 8.57324C110.405 9.18848 111.07 9.49609 111.904 9.49609ZM116.73 5.94824C116.73 7.75749 116.222 9.1429 115.206 10.1045C114.445 10.8883 113.344 11.2803 111.904 11.2803C110.464 11.2803 109.364 10.8883 108.603 10.1045C107.582 9.1429 107.071 7.75749 107.071 5.94824C107.071 4.10254 107.582 2.71712 108.603 1.79199C109.364 1.00814 110.464 0.616211 111.904 0.616211C113.344 0.616211 114.445 1.00814 115.206 1.79199C116.222 2.71712 116.73 4.10254 116.73 5.94824ZM124.018 4.12988C124.018 3.60579 123.879 3.2321 123.601 3.00879C123.327 2.78548 122.942 2.67383 122.445 2.67383H120.483V5.64062H122.445C122.942 5.64062 123.327 5.51986 123.601 5.27832C123.879 5.03678 124.018 4.65397 124.018 4.12988ZM126.103 4.11621C126.103 5.30566 125.802 6.14648 125.2 6.63867C124.599 7.13086 123.74 7.37695 122.623 7.37695H120.483V11H118.392V0.923828H122.78C123.792 0.923828 124.599 1.18359 125.2 1.70312C125.802 2.22266 126.103 3.02702 126.103 4.11621ZM133.355 4.12988C133.355 3.60579 133.216 3.2321 132.938 3.00879C132.665 2.78548 132.28 2.67383 131.783 2.67383H129.821V5.64062H131.783C132.28 5.64062 132.665 5.51986 132.938 5.27832C133.216 5.03678 133.355 4.65397 133.355 4.12988ZM135.44 4.11621C135.44 5.30566 135.14 6.14648 134.538 6.63867C133.937 7.13086 133.077 7.37695 131.961 7.37695H129.821V11H127.729V0.923828H132.118C133.13 0.923828 133.937 1.18359 134.538 1.70312C135.14 2.22266 135.44 3.02702 135.44 4.11621ZM141.477 9.49609C142.311 9.49609 142.971 9.18848 143.459 8.57324C143.951 7.95801 144.197 7.08301 144.197 5.94824C144.197 4.81803 143.951 3.94531 143.459 3.33008C142.971 2.71029 142.311 2.40039 141.477 2.40039C140.643 2.40039 139.977 2.70801 139.48 3.32324C138.984 3.93848 138.735 4.81348 138.735 5.94824C138.735 7.08301 138.984 7.95801 139.48 8.57324C139.977 9.18848 140.643 9.49609 141.477 9.49609ZM146.303 5.94824C146.303 7.75749 145.795 9.1429 144.778 10.1045C144.017 10.8883 142.917 11.2803 141.477 11.2803C140.036 11.2803 138.936 10.8883 138.175 10.1045C137.154 9.1429 136.644 7.75749 136.644 5.94824C136.644 4.10254 137.154 2.71712 138.175 1.79199C138.936 1.00814 140.036 0.616211 141.477 0.616211C142.917 0.616211 144.017 1.00814 144.778 1.79199C145.795 2.71712 146.303 4.10254 146.303 5.94824ZM150.021 2.67383V5.38086H152.407C152.881 5.38086 153.237 5.32617 153.474 5.2168C153.893 5.02539 154.103 4.64714 154.103 4.08203C154.103 3.47135 153.9 3.0612 153.494 2.85156C153.266 2.73307 152.924 2.67383 152.469 2.67383H150.021ZM152.906 0.923828C153.613 0.9375 154.155 1.02409 154.533 1.18359C154.916 1.3431 155.24 1.5778 155.504 1.8877C155.723 2.1429 155.896 2.42546 156.023 2.73535C156.151 3.04525 156.215 3.39844 156.215 3.79492C156.215 4.27344 156.094 4.74512 155.853 5.20996C155.611 5.67025 155.212 5.99609 154.656 6.1875C155.121 6.37435 155.449 6.64095 155.641 6.9873C155.837 7.3291 155.935 7.85319 155.935 8.55957V9.23633C155.935 9.69661 155.953 10.0088 155.989 10.1729C156.044 10.4326 156.172 10.624 156.372 10.7471V11H154.055C153.991 10.7767 153.945 10.5967 153.918 10.46C153.863 10.1774 153.834 9.88802 153.829 9.5918L153.815 8.65527C153.806 8.0127 153.688 7.58431 153.46 7.37012C153.237 7.15592 152.815 7.04883 152.195 7.04883H150.021V11H147.964V0.923828H152.906ZM165.354 0.923828V2.70801H162.34V11H160.221V2.70801H157.192V0.923828H165.354ZM166.592 0.923828H168.731V7.11719C168.731 7.8099 168.813 8.31576 168.978 8.63477C169.233 9.19987 169.789 9.48242 170.646 9.48242C171.498 9.48242 172.051 9.19987 172.307 8.63477C172.471 8.31576 172.553 7.8099 172.553 7.11719V0.923828H174.692V7.11719C174.692 8.18815 174.526 9.02214 174.193 9.61914C173.574 10.7129 172.391 11.2598 170.646 11.2598C168.9 11.2598 167.715 10.7129 167.091 9.61914C166.758 9.02214 166.592 8.18815 166.592 7.11719V0.923828ZM176.675 0.923828H178.883L182.896 7.95801V0.923828H184.857V11H182.752L178.637 3.84277V11H176.675V0.923828ZM188.754 11H186.662V0.923828H188.754V11ZM198.044 0.923828V2.70801H195.029V11H192.91V2.70801H189.882V0.923828H198.044ZM201.209 11H199.117V0.923828H201.209V11ZM210.629 2.70801H205.297V4.84766H210.191V6.59766H205.297V9.18848H210.875V11H203.239V0.923828H210.629V2.70801ZM214.04 7.88965C214.104 8.34993 214.229 8.69401 214.416 8.92188C214.758 9.33659 215.343 9.54395 216.173 9.54395C216.67 9.54395 217.073 9.48926 217.383 9.37988C217.971 9.17025 218.265 8.7806 218.265 8.21094C218.265 7.87826 218.119 7.62077 217.827 7.43848C217.535 7.26074 217.077 7.10352 216.453 6.9668L215.387 6.72754C214.339 6.49056 213.614 6.23307 213.213 5.95508C212.534 5.49023 212.194 4.76335 212.194 3.77441C212.194 2.87207 212.522 2.1224 213.179 1.52539C213.835 0.928385 214.799 0.629883 216.07 0.629883C217.132 0.629883 218.037 0.912435 218.784 1.47754C219.536 2.03809 219.93 2.85384 219.967 3.9248H217.943C217.907 3.31868 217.643 2.88802 217.15 2.63281C216.822 2.46419 216.414 2.37988 215.927 2.37988C215.384 2.37988 214.951 2.48926 214.628 2.70801C214.304 2.92676 214.143 3.2321 214.143 3.62402C214.143 3.98405 214.302 4.25293 214.621 4.43066C214.826 4.54915 215.264 4.68815 215.934 4.84766L217.67 5.26465C218.431 5.44694 219.005 5.69076 219.393 5.99609C219.994 6.47005 220.295 7.15592 220.295 8.05371C220.295 8.97428 219.942 9.73991 219.235 10.3506C218.534 10.9567 217.54 11.2598 216.255 11.2598C214.942 11.2598 213.91 10.9613 213.158 10.3643C212.406 9.7627 212.03 8.93783 212.03 7.88965H214.04ZM227.985 7.19238H230.542L229.284 3.22754L227.985 7.19238ZM228.115 0.923828H230.494L234.062 11H231.779L231.13 8.92871H227.418L226.721 11H224.52L228.115 0.923828ZM240.208 0.923828H242.396L238.957 11H236.968L233.563 0.923828H235.812L238 8.57324L240.208 0.923828ZM245.362 7.19238H247.919L246.661 3.22754L245.362 7.19238ZM245.492 0.923828H247.871L251.439 11H249.156L248.507 8.92871H244.795L244.098 11H241.896L245.492 0.923828ZM254.652 11H252.561V0.923828H254.652V11ZM256.621 0.923828H258.727V9.18848H263.717V11H256.621V0.923828ZM267.935 7.19238H270.491L269.233 3.22754L267.935 7.19238ZM268.064 0.923828H270.443L274.012 11H271.729L271.079 8.92871H267.367L266.67 11H264.469L268.064 0.923828ZM277.341 2.67383V4.89551H279.815C280.257 4.89551 280.615 4.81348 280.889 4.64941C281.167 4.48079 281.306 4.18457 281.306 3.76074C281.306 3.29134 281.123 2.98145 280.759 2.83105C280.444 2.72624 280.043 2.67383 279.556 2.67383H277.341ZM277.341 6.56348V9.25H279.815C280.257 9.25 280.602 9.19076 280.848 9.07227C281.294 8.85352 281.518 8.43424 281.518 7.81445C281.518 7.29036 281.301 6.93034 280.868 6.73438C280.627 6.625 280.287 6.56803 279.85 6.56348H277.341ZM280.226 0.923828C281.461 0.942057 282.336 1.2998 282.851 1.99707C283.16 2.42546 283.315 2.93815 283.315 3.53516C283.315 4.15039 283.16 4.64486 282.851 5.01855C282.677 5.22819 282.422 5.4196 282.085 5.59277C282.6 5.77962 282.987 6.07585 283.247 6.48145C283.511 6.88704 283.644 7.37923 283.644 7.95801C283.644 8.55501 283.493 9.09049 283.192 9.56445C283.001 9.87891 282.762 10.1432 282.475 10.3574C282.151 10.6035 281.768 10.7721 281.326 10.8633C280.889 10.9544 280.412 11 279.897 11H275.331V0.923828H280.226ZM285.414 0.923828H287.52V9.18848H292.51V11H285.414V0.923828ZM301.424 2.70801H296.092V4.84766H300.986V6.59766H296.092V9.18848H301.67V11H294.034V0.923828H301.424V2.70801ZM303.782 0.958008H305.922V3.51465L305.368 8.21777H304.35L303.782 3.51465V0.958008ZM303.83 9.02441H305.867V11H303.83V9.02441Z" fill="#333333"/>
<path d="M73.6289 43.0439C73.6289 41.2848 74.1006 39.929 75.0439 38.9766C75.8643 38.1471 76.9079 37.7324 78.1748 37.7324C79.8701 37.7324 81.1097 38.2884 81.8936 39.4004C82.3265 40.0247 82.5589 40.6514 82.5908 41.2803H80.4854C80.3486 40.7972 80.1732 40.4326 79.959 40.1865C79.5762 39.749 79.0088 39.5303 78.2568 39.5303C77.4912 39.5303 76.8874 39.8402 76.4453 40.46C76.0033 41.0752 75.7822 41.9479 75.7822 43.0781C75.7822 44.2083 76.0146 45.056 76.4795 45.6211C76.9489 46.1816 77.5436 46.4619 78.2637 46.4619C79.002 46.4619 79.5648 46.2204 79.9521 45.7373C80.1663 45.4775 80.3441 45.0879 80.4854 44.5684H82.5703C82.388 45.6667 81.9209 46.5599 81.1689 47.248C80.4215 47.9362 79.4622 48.2803 78.291 48.2803C76.8418 48.2803 75.7025 47.8154 74.873 46.8857C74.0436 45.9515 73.6289 44.6709 73.6289 43.0439ZM88.6406 46.4961C89.4746 46.4961 90.1354 46.1885 90.623 45.5732C91.1152 44.958 91.3613 44.083 91.3613 42.9482C91.3613 41.818 91.1152 40.9453 90.623 40.3301C90.1354 39.7103 89.4746 39.4004 88.6406 39.4004C87.8066 39.4004 87.1413 39.708 86.6445 40.3232C86.1478 40.9385 85.8994 41.8135 85.8994 42.9482C85.8994 44.083 86.1478 44.958 86.6445 45.5732C87.1413 46.1885 87.8066 46.4961 88.6406 46.4961ZM93.4668 42.9482C93.4668 44.7575 92.9587 46.1429 91.9424 47.1045C91.1813 47.8883 90.0807 48.2803 88.6406 48.2803C87.2005 48.2803 86.0999 47.8883 85.3389 47.1045C84.318 46.1429 83.8076 44.7575 83.8076 42.9482C83.8076 41.1025 84.318 39.7171 85.3389 38.792C86.0999 38.0081 87.2005 37.6162 88.6406 37.6162C90.0807 37.6162 91.1813 38.0081 91.9424 38.792C92.9587 39.7171 93.4668 41.1025 93.4668 42.9482ZM95.0459 37.9238H97.2539L101.267 44.958V37.9238H103.229V48H101.123L97.0078 40.8428V48H95.0459V37.9238ZM112.519 37.9238V39.708H109.504V48H107.385V39.708H104.356V37.9238H112.519ZM115.472 44.1924H118.028L116.771 40.2275L115.472 44.1924ZM115.602 37.9238H117.98L121.549 48H119.266L118.616 45.9287H114.904L114.207 48H112.006L115.602 37.9238ZM122.396 43.0439C122.396 41.2848 122.868 39.929 123.812 38.9766C124.632 38.1471 125.675 37.7324 126.942 37.7324C128.638 37.7324 129.877 38.2884 130.661 39.4004C131.094 40.0247 131.326 40.6514 131.358 41.2803H129.253C129.116 40.7972 128.941 40.4326 128.727 40.1865C128.344 39.749 127.776 39.5303 127.024 39.5303C126.259 39.5303 125.655 39.8402 125.213 40.46C124.771 41.0752 124.55 41.9479 124.55 43.0781C124.55 44.2083 124.782 45.056 125.247 45.6211C125.716 46.1816 126.311 46.4619 127.031 46.4619C127.77 46.4619 128.332 46.2204 128.72 45.7373C128.934 45.4775 129.112 45.0879 129.253 44.5684H131.338C131.156 45.6667 130.688 46.5599 129.937 47.248C129.189 47.9362 128.23 48.2803 127.059 48.2803C125.609 48.2803 124.47 47.8154 123.641 46.8857C122.811 45.9515 122.396 44.6709 122.396 43.0439ZM140.272 37.9238V39.708H137.258V48H135.139V39.708H132.11V37.9238H140.272ZM201.591 44.1924H204.147L202.89 40.2275L201.591 44.1924ZM201.721 37.9238H204.1L207.668 48H205.385L204.735 45.9287H201.023L200.326 48H198.125L201.721 37.9238ZM215.235 37.9238V39.708H212.221V48H210.102V39.708H207.073V37.9238H215.235Z" fill="#333333"/>
<path d="M146.931 44.8896C146.994 45.3499 147.12 45.694 147.307 45.9219C147.648 46.3366 148.234 46.5439 149.063 46.5439C149.56 46.5439 149.964 46.4893 150.273 46.3799C150.861 46.1702 151.155 45.7806 151.155 45.2109C151.155 44.8783 151.009 44.6208 150.718 44.4385C150.426 44.2607 149.968 44.1035 149.344 43.9668L148.277 43.7275C147.229 43.4906 146.505 43.2331 146.104 42.9551C145.424 42.4902 145.085 41.7633 145.085 40.7744C145.085 39.8721 145.413 39.1224 146.069 38.5254C146.726 37.9284 147.689 37.6299 148.961 37.6299C150.023 37.6299 150.927 37.9124 151.675 38.4775C152.427 39.0381 152.821 39.8538 152.857 40.9248H150.834C150.798 40.3187 150.533 39.888 150.041 39.6328C149.713 39.4642 149.305 39.3799 148.817 39.3799C148.275 39.3799 147.842 39.4893 147.519 39.708C147.195 39.9268 147.033 40.2321 147.033 40.624C147.033 40.984 147.193 41.2529 147.512 41.4307C147.717 41.5492 148.154 41.6882 148.824 41.8477L150.561 42.2646C151.322 42.4469 151.896 42.6908 152.283 42.9961C152.885 43.4701 153.186 44.1559 153.186 45.0537C153.186 45.9743 152.832 46.7399 152.126 47.3506C151.424 47.9567 150.431 48.2598 149.146 48.2598C147.833 48.2598 146.801 47.9613 146.049 47.3643C145.297 46.7627 144.921 45.9378 144.921 44.8896H146.931ZM162.195 39.708H156.863V41.8477H161.758V43.5977H156.863V46.1885H162.441V48H154.806V37.9238H162.195V39.708ZM166.188 39.6738V42.3809H168.573C169.047 42.3809 169.403 42.3262 169.64 42.2168C170.059 42.0254 170.269 41.6471 170.269 41.082C170.269 40.4714 170.066 40.0612 169.66 39.8516C169.432 39.7331 169.09 39.6738 168.635 39.6738H166.188ZM169.072 37.9238C169.779 37.9375 170.321 38.0241 170.699 38.1836C171.082 38.3431 171.406 38.5778 171.67 38.8877C171.889 39.1429 172.062 39.4255 172.189 39.7354C172.317 40.0452 172.381 40.3984 172.381 40.7949C172.381 41.2734 172.26 41.7451 172.019 42.21C171.777 42.6702 171.378 42.9961 170.822 43.1875C171.287 43.3743 171.615 43.641 171.807 43.9873C172.003 44.3291 172.101 44.8532 172.101 45.5596V46.2363C172.101 46.6966 172.119 47.0088 172.155 47.1729C172.21 47.4326 172.338 47.624 172.538 47.7471V48H170.221C170.157 47.7767 170.111 47.5967 170.084 47.46C170.029 47.1774 170 46.888 169.995 46.5918L169.981 45.6553C169.972 45.0127 169.854 44.5843 169.626 44.3701C169.403 44.1559 168.981 44.0488 168.361 44.0488H166.188V48H164.13V37.9238H169.072ZM180.878 37.9238H183.906V48H181.944V41.1846C181.944 40.9886 181.947 40.7152 181.951 40.3643C181.956 40.0088 181.958 39.7354 181.958 39.5439L180.051 48H178.007L176.113 39.5439C176.113 39.7354 176.116 40.0088 176.12 40.3643C176.125 40.7152 176.127 40.9886 176.127 41.1846V48H174.165V37.9238H177.228L179.06 45.8467L180.878 37.9238ZM188.616 44.1924H191.173L189.915 40.2275L188.616 44.1924ZM188.746 37.9238H191.125L194.693 48H192.41L191.761 45.9287H188.049L187.352 48H185.15L188.746 37.9238ZM75.9941 64H73.9023V53.9238H75.9941V64ZM77.9287 53.9238H80.1367L84.1494 60.958V53.9238H86.1113V64H84.0059L79.8906 56.8428V64H77.9287V53.9238ZM88.0801 53.9375H95.2236V55.708H90.1719V58.0254H94.5947V59.7754H90.1719V64H88.0801V53.9375ZM101.096 62.4961C101.93 62.4961 102.59 62.1885 103.078 61.5732C103.57 60.958 103.816 60.083 103.816 58.9482C103.816 57.818 103.57 56.9453 103.078 56.3301C102.59 55.7103 101.93 55.4004 101.096 55.4004C100.262 55.4004 99.5964 55.708 99.0996 56.3232C98.6029 56.9385 98.3545 57.8135 98.3545 58.9482C98.3545 60.083 98.6029 60.958 99.0996 61.5732C99.5964 62.1885 100.262 62.4961 101.096 62.4961ZM105.922 58.9482C105.922 60.7575 105.414 62.1429 104.397 63.1045C103.636 63.8883 102.536 64.2803 101.096 64.2803C99.6556 64.2803 98.555 63.8883 97.7939 63.1045C96.7731 62.1429 96.2627 60.7575 96.2627 58.9482C96.2627 57.1025 96.7731 55.7171 97.7939 54.792C98.555 54.0081 99.6556 53.6162 101.096 53.6162C102.536 53.6162 103.636 54.0081 104.397 54.792C105.414 55.7171 105.922 57.1025 105.922 58.9482ZM114.583 57.793C114.583 57.5514 114.51 57.3486 114.364 57.1846C114.218 57.0205 114.022 56.9385 113.776 56.9385C113.302 56.9385 112.895 57.2347 112.553 57.8271C112.211 58.415 112.04 58.9847 112.04 59.5361C112.04 59.8688 112.115 60.1377 112.266 60.3428C112.421 60.5479 112.637 60.6504 112.915 60.6504C113.403 60.6504 113.801 60.2812 114.111 59.543C114.426 58.8001 114.583 58.2168 114.583 57.793ZM112.478 61.6553C111.926 61.6553 111.466 61.457 111.097 61.0605C110.732 60.6641 110.55 60.1104 110.55 59.3994C110.55 58.5745 110.83 57.8021 111.391 57.082C111.951 56.362 112.639 56.002 113.455 56.002C113.934 56.002 114.305 56.1341 114.569 56.3984C114.77 56.6035 114.904 56.8382 114.973 57.1025L115.219 56.2412H116.511L115.636 59.208C115.567 59.4495 115.517 59.6296 115.485 59.748C115.458 59.862 115.444 59.9622 115.444 60.0488C115.444 60.1855 115.49 60.3154 115.581 60.4385C115.672 60.557 115.818 60.6162 116.019 60.6162C116.41 60.6162 116.802 60.361 117.194 59.8506C117.591 59.3356 117.789 58.6543 117.789 57.8066C117.789 56.5534 117.251 55.6533 116.176 55.1064C115.501 54.7601 114.743 54.5869 113.899 54.5869C112.35 54.5869 111.106 55.0609 110.167 56.0088C109.319 56.8656 108.896 57.8932 108.896 59.0918C108.896 60.4225 109.392 61.4775 110.386 62.2568C111.265 62.945 112.339 63.2891 113.605 63.2891C114.471 63.2891 115.28 63.1296 116.032 62.8105C116.442 62.6419 116.866 62.4027 117.304 62.0928L117.468 61.9766L117.967 62.7422C117.32 63.2435 116.618 63.6263 115.861 63.8906C115.109 64.1504 114.328 64.2803 113.517 64.2803C111.625 64.2803 110.16 63.6924 109.121 62.5166C108.26 61.5413 107.829 60.3861 107.829 59.0508C107.829 57.556 108.367 56.2891 109.442 55.25C110.573 54.1517 112.02 53.6025 113.783 53.6025C115.219 53.6025 116.408 53.9785 117.352 54.7305C118.345 55.5234 118.842 56.5762 118.842 57.8887C118.842 58.9232 118.527 59.8118 117.898 60.5547C117.27 61.293 116.552 61.6621 115.745 61.6621C115.326 61.6621 115.002 61.5436 114.774 61.3066C114.551 61.0697 114.439 60.8258 114.439 60.5752C114.439 60.5433 114.439 60.5091 114.439 60.4727C114.444 60.4316 114.449 60.3883 114.453 60.3428C114.28 60.6709 114.086 60.9329 113.872 61.1289C113.485 61.4798 113.02 61.6553 112.478 61.6553ZM128.515 53.9238V55.708H125.5V64H123.381V55.708H120.353V53.9238H128.515ZM129.738 64V53.9238H131.823V57.7656H135.761V53.9238H137.853V64H135.761V59.502H131.823V64H129.738ZM147.32 55.708H141.988V57.8477H146.883V59.5977H141.988V62.1885H147.566V64H139.931V53.9238H147.32V55.708ZM150.731 60.8896C150.795 61.3499 150.921 61.694 151.107 61.9219C151.449 62.3366 152.035 62.5439 152.864 62.5439C153.361 62.5439 153.764 62.4893 154.074 62.3799C154.662 62.1702 154.956 61.7806 154.956 61.2109C154.956 60.8783 154.81 60.6208 154.519 60.4385C154.227 60.2607 153.769 60.1035 153.145 59.9668L152.078 59.7275C151.03 59.4906 150.305 59.2331 149.904 58.9551C149.225 58.4902 148.886 57.7633 148.886 56.7744C148.886 55.8721 149.214 55.1224 149.87 54.5254C150.526 53.9284 151.49 53.6299 152.762 53.6299C153.824 53.6299 154.728 53.9124 155.476 54.4775C156.228 55.0381 156.622 55.8538 156.658 56.9248H154.635C154.598 56.3187 154.334 55.888 153.842 55.6328C153.514 55.4642 153.106 55.3799 152.618 55.3799C152.076 55.3799 151.643 55.4893 151.319 55.708C150.996 55.9268 150.834 56.2321 150.834 56.624C150.834 56.984 150.993 57.2529 151.312 57.4307C151.518 57.5492 151.955 57.6882 152.625 57.8477L154.361 58.2646C155.122 58.4469 155.697 58.6908 156.084 58.9961C156.686 59.4701 156.986 60.1559 156.986 61.0537C156.986 61.9743 156.633 62.7399 155.927 63.3506C155.225 63.9567 154.231 64.2598 152.946 64.2598C151.634 64.2598 150.602 63.9613 149.85 63.3643C149.098 62.7627 148.722 61.9378 148.722 60.8896H150.731ZM165.996 55.708H160.664V57.8477H165.559V59.5977H160.664V62.1885H166.242V64H158.606V53.9238H165.996V55.708ZM169.988 55.6738V58.3809H172.374C172.848 58.3809 173.203 58.3262 173.44 58.2168C173.86 58.0254 174.069 57.6471 174.069 57.082C174.069 56.4714 173.867 56.0612 173.461 55.8516C173.233 55.7331 172.891 55.6738 172.436 55.6738H169.988ZM172.873 53.9238C173.579 53.9375 174.122 54.0241 174.5 54.1836C174.883 54.3431 175.206 54.5778 175.471 54.8877C175.689 55.1429 175.863 55.4255 175.99 55.7354C176.118 56.0452 176.182 56.3984 176.182 56.7949C176.182 57.2734 176.061 57.7451 175.819 58.21C175.578 58.6702 175.179 58.9961 174.623 59.1875C175.088 59.3743 175.416 59.641 175.607 59.9873C175.803 60.3291 175.901 60.8532 175.901 61.5596V62.2363C175.901 62.6966 175.92 63.0088 175.956 63.1729C176.011 63.4326 176.138 63.624 176.339 63.7471V64H174.021C173.958 63.7767 173.912 63.5967 173.885 63.46C173.83 63.1774 173.8 62.888 173.796 62.5918L173.782 61.6553C173.773 61.0127 173.655 60.5843 173.427 60.3701C173.203 60.1559 172.782 60.0488 172.162 60.0488H169.988V64H167.931V53.9238H172.873ZM184.679 53.9238H187.707V64H185.745V57.1846C185.745 56.9886 185.747 56.7152 185.752 56.3643C185.757 56.0088 185.759 55.7354 185.759 55.5439L183.852 64H181.808L179.914 55.5439C179.914 55.7354 179.916 56.0088 179.921 56.3643C179.925 56.7152 179.928 56.9886 179.928 57.1846V64H177.966V53.9238H181.028L182.86 61.8467L184.679 53.9238ZM192.417 60.1924H194.974L193.716 56.2275L192.417 60.1924ZM192.547 53.9238H194.926L198.494 64H196.211L195.562 61.9287H191.85L191.152 64H188.951L192.547 53.9238ZM199.588 61.9629H201.659V64H199.588V61.9629ZM208.133 62.4961C208.967 62.4961 209.628 62.1885 210.115 61.5732C210.607 60.958 210.854 60.083 210.854 58.9482C210.854 57.818 210.607 56.9453 210.115 56.3301C209.628 55.7103 208.967 55.4004 208.133 55.4004C207.299 55.4004 206.633 55.708 206.137 56.3232C205.64 56.9385 205.392 57.8135 205.392 58.9482C205.392 60.083 205.64 60.958 206.137 61.5732C206.633 62.1885 207.299 62.4961 208.133 62.4961ZM212.959 58.9482C212.959 60.7575 212.451 62.1429 211.435 63.1045C210.674 63.8883 209.573 64.2803 208.133 64.2803C206.693 64.2803 205.592 63.8883 204.831 63.1045C203.81 62.1429 203.3 60.7575 203.3 58.9482C203.3 57.1025 203.81 55.7171 204.831 54.792C205.592 54.0081 206.693 53.6162 208.133 53.6162C209.573 53.6162 210.674 54.0081 211.435 54.792C212.451 55.7171 212.959 57.1025 212.959 58.9482ZM216.678 55.6738V58.3809H219.063C219.537 58.3809 219.893 58.3262 220.13 58.2168C220.549 58.0254 220.759 57.6471 220.759 57.082C220.759 56.4714 220.556 56.0612 220.15 55.8516C219.923 55.7331 219.581 55.6738 219.125 55.6738H216.678ZM219.562 53.9238C220.269 53.9375 220.811 54.0241 221.189 54.1836C221.572 54.3431 221.896 54.5778 222.16 54.8877C222.379 55.1429 222.552 55.4255 222.68 55.7354C222.807 56.0452 222.871 56.3984 222.871 56.7949C222.871 57.2734 222.75 57.7451 222.509 58.21C222.267 58.6702 221.868 58.9961 221.312 59.1875C221.777 59.3743 222.105 59.641 222.297 59.9873C222.493 60.3291 222.591 60.8532 222.591 61.5596V62.2363C222.591 62.6966 222.609 63.0088 222.646 63.1729C222.7 63.4326 222.828 63.624 223.028 63.7471V64H220.711C220.647 63.7767 220.602 63.5967 220.574 63.46C220.52 63.1774 220.49 62.888 220.485 62.5918L220.472 61.6553C220.463 61.0127 220.344 60.5843 220.116 60.3701C219.893 60.1559 219.471 60.0488 218.852 60.0488H216.678V64H214.62V53.9238H219.562ZM231.464 57.0684C231.304 56.3802 230.915 55.8994 230.295 55.626C229.949 55.4756 229.563 55.4004 229.14 55.4004C228.328 55.4004 227.661 55.708 227.137 56.3232C226.617 56.9339 226.357 57.8545 226.357 59.085C226.357 60.3245 226.64 61.2018 227.205 61.7168C227.77 62.2318 228.413 62.4893 229.133 62.4893C229.839 62.4893 230.418 62.2865 230.869 61.8809C231.32 61.4707 231.598 60.9352 231.703 60.2744H229.372V58.5928H233.569V64H232.175L231.963 62.7422C231.557 63.2207 231.193 63.5579 230.869 63.7539C230.313 64.0957 229.63 64.2666 228.818 64.2666C227.483 64.2666 226.389 63.804 225.537 62.8789C224.648 61.9492 224.204 60.6777 224.204 59.0645C224.204 57.4329 224.653 56.125 225.551 55.1406C226.449 54.1562 227.636 53.6641 229.112 53.6641C230.393 53.6641 231.421 53.9899 232.195 54.6416C232.975 55.2887 233.421 56.0977 233.535 57.0684H231.464Z" fill="#B82829"/>
</svg>
