<svg width="46" height="46" viewBox="0 0 46 46" fill="none" xmlns="http://www.w3.org/2000/svg">
<path opacity="0.1" fill-rule="evenodd" clip-rule="evenodd" d="M22.597 44.3479C34.5668 44.3479 44.2703 34.6445 44.2703 22.6747C44.2703 10.7049 34.5668 1.00146 22.597 1.00146C10.6273 1.00146 0.923828 10.7049 0.923828 22.6747C0.923828 34.6445 10.6273 44.3479 22.597 44.3479Z" stroke="#282828" strokeWidth="1.8577"/>
<path d="M24.5705 17.1272H26.5624C26.7456 17.1272 26.8944 16.987 26.8944 16.8144V14.9373C26.8944 14.7647 26.7456 14.6245 26.5624 14.6245H24.5705C22.5573 14.6245 20.9186 16.168 20.9186 18.0657V20.2555H18.5947C18.4114 20.2555 18.2627 20.3957 18.2627 20.5684V22.4454C18.2627 22.6181 18.4114 22.7582 18.5947 22.7582H20.9186V29.3277C20.9186 29.5004 21.0673 29.6406 21.2506 29.6406H23.2425C23.4258 29.6406 23.5745 29.5004 23.5745 29.3277V22.7582H25.8984C26.0412 22.7582 26.168 22.6719 26.2138 22.5442L26.8778 20.6672C26.9116 20.5721 26.8944 20.467 26.832 20.3851C26.7689 20.3037 26.6693 20.2555 26.5624 20.2555H23.5745V18.0657C23.5745 17.5483 24.0214 17.1272 24.5705 17.1272Z" fill="#333333"/>
</svg>
