<svg width="31" height="31" viewBox="0 0 31 31" fill="none" xmlns="http://www.w3.org/2000/svg">
<circle cx="15.5" cy="15.5" r="15.5" fill="#1A1A1A"/>
<path fill-rule="evenodd" clip-rule="evenodd" d="M21.75 10.7083C21.75 10.3171 21.4329 10 21.0417 10H9.70833C9.31712 10 9 10.3171 9 10.7083C9 11.0995 9.31712 11.4167 9.70833 11.4167H21.0417C21.4329 11.4167 21.75 11.0995 21.75 10.7083ZM21.75 14.9583C21.75 14.5671 21.4329 14.25 21.0417 14.25H13.9583C13.5671 14.25 13.25 14.5671 13.25 14.9583C13.25 15.3495 13.5671 15.6667 13.9583 15.6667H21.0417C21.4329 15.6667 21.75 15.3495 21.75 14.9583ZM21.75 19.2083C21.75 18.8171 21.4329 18.5 21.0417 18.5H17.5C17.1088 18.5 16.7917 18.8171 16.7917 19.2083C16.7917 19.5995 17.1088 19.9167 17.5 19.9167H21.0417C21.4329 19.9167 21.75 19.5995 21.75 19.2083Z" fill="white"/>
</svg>
