<svg width="47" height="46" viewBox="0 0 47 46" fill="none" xmlns="http://www.w3.org/2000/svg">
<path opacity="0.1" fill-rule="evenodd" clip-rule="evenodd" d="M23.5209 44.3479C35.4907 44.3479 45.1941 34.6445 45.1941 22.6747C45.1941 10.7049 35.4907 1.00146 23.5209 1.00146C11.5511 1.00146 1.84766 10.7049 1.84766 22.6747C1.84766 34.6445 11.5511 44.3479 23.5209 44.3479Z" stroke="#282828" stroke-width="1.8577"/>
<g clip-path="url(#clip0_1978_310)">
<path d="M25.1016 21.8309L31.06 14.9048H29.648L24.4743 20.9186L20.3422 14.9048H15.5762L21.8248 23.9988L15.5762 31.2619H16.9882L22.4517 24.9111L26.8156 31.2619H31.5816L25.1012 21.8309H25.1016ZM23.1676 24.0789L22.5345 23.1734L17.497 15.9677H19.6658L23.7311 21.7829L24.3642 22.6885L29.6487 30.2473H27.4799L23.1676 24.0793V24.0789Z" fill="#333333"/>
</g>
<defs>
<clipPath id="clip0_1978_310">
<rect width="16.3571" height="16.3571" fill="white" transform="translate(15.4004 14.9048)"/>
</clipPath>
</defs>
</svg>
