<svg width="16" height="17" viewBox="0 0 16 17" fill="none" xmlns="http://www.w3.org/2000/svg">
<path d="M1 14.9999C1.186 14.9999 1.36138 14.8959 1.44725 14.7235C2.373 12.872 3.2495 11.1195 8 11.0058V14.4999C8 14.6986 8.11763 14.8783 8.29938 14.9579C8.48112 15.0375 8.69338 15.0023 8.83938 14.867L15.3394 8.86701C15.4419 8.77288 15.5 8.63951 15.5 8.49988C15.5 8.36026 15.4419 8.22688 15.3394 8.13263L8.83938 2.13263C8.69338 1.99738 8.4805 1.96276 8.29938 2.04176C8.11763 2.12151 8 2.30113 8 2.49988V6.00576C1.07475 6.17763 0.5 9.95638 0.5 14.4999C0.5 14.7318 0.659625 14.933 0.88525 14.9868C0.923375 14.9955 0.961875 14.9999 1 14.9999ZM14.2628 8.49988L9 13.3578V10.4999C9 10.2235 8.77637 9.99988 8.5 9.99988C4.354 9.99988 2.58887 11.1571 1.55325 12.5483C1.78713 9.13613 2.9765 6.99988 8.5 6.99988C8.77637 6.99988 9 6.77626 9 6.49988V3.64201L14.2628 8.49988Z" fill="#C42C2D"/>
</svg>
