<svg width="24" height="24" viewBox="0 0 24 24" fill="none" xmlns="http://www.w3.org/2000/svg">
<path d="M21.7527 2.88604C18.7616 -0.105242 13.8943 -0.105242 10.9027 2.88604L1.6023 12.1864C-0.534217 14.3231 -0.534076 17.7998 1.60258 19.9364C2.671 21.0048 4.07397 21.539 5.4775 21.5389C6.88066 21.5387 8.28438 21.0047 9.35261 19.9364L17.8777 11.4111C18.4988 10.7901 18.8409 9.9644 18.841 9.08615C18.841 8.20785 18.499 7.38219 17.8778 6.76101C16.5957 5.47902 14.5096 5.47907 13.2277 6.76124L7.65264 12.3362C7.22463 12.7641 7.22463 13.4581 7.65255 13.8862C8.08052 14.3143 8.7745 14.3142 9.20256 13.8862L14.7777 8.31121C15.205 7.88385 15.9003 7.88376 16.3277 8.31112C16.5347 8.51812 16.6488 8.79337 16.6488 9.0861C16.6488 9.37884 16.5348 9.65399 16.3277 9.86108L7.8026 18.3863C6.52052 19.6683 4.43458 19.6685 3.1526 18.3864C1.87061 17.1043 1.87052 15.0183 3.15236 13.7362L12.4527 4.43605C14.5895 2.2993 18.0662 2.2993 20.2027 4.43605C21.2379 5.47105 21.808 6.84726 21.808 8.31102C21.808 9.77479 21.2378 11.151 20.2027 12.1861L10.9025 21.4866C10.4746 21.9146 10.4746 22.6085 10.9026 23.0366C11.1167 23.2506 11.3972 23.3576 11.6776 23.3576C11.9581 23.3576 12.2386 23.2505 12.4526 23.0366L21.7527 13.7361C23.2019 12.2871 23.9999 10.3604 24 8.31107C24 6.26174 23.2019 4.33509 21.7527 2.88604Z" fill="#C42C2D"/>
</svg>
