<svg width="36" height="36" viewBox="0 0 36 36" fill="none" xmlns="http://www.w3.org/2000/svg">
<path d="M16.0091 28C14.3366 28.0015 12.6904 27.5835 11.2212 26.7842C9.75196 25.9849 8.5067 24.8299 7.59937 23.4249C6.69203 22.0198 6.15161 20.4097 6.02755 18.7417C5.90349 17.0738 6.19977 15.4014 6.88926 13.8776C7.57875 12.3538 8.63943 11.0272 9.97422 10.0194C11.309 9.01157 12.8753 8.35462 14.5296 8.10869C16.184 7.86277 17.8736 8.03572 19.4438 8.61171C21.0141 9.18771 22.4147 10.1484 23.5177 11.4057C23.6638 11.5795 23.7361 11.8036 23.719 12.0301C23.7019 12.2565 23.5968 12.4672 23.4262 12.6171C23.3408 12.6909 23.2416 12.7471 23.1344 12.7824C23.0272 12.8178 22.9141 12.8316 22.8015 12.8231C22.689 12.8146 22.5792 12.784 22.4785 12.7329C22.3778 12.6819 22.2882 12.6115 22.2148 12.5257C21.3043 11.4758 20.1442 10.6718 18.8415 10.1877C17.5388 9.70359 16.1353 9.55493 14.7601 9.7554C13.3849 9.95587 12.0822 10.499 10.9719 11.3349C9.86158 12.1707 8.97937 13.2725 8.40644 14.5386C7.8335 15.8048 7.58825 17.1947 7.69325 18.5805C7.79825 19.9662 8.25013 21.3033 9.0073 22.4687C9.76447 23.6341 10.8026 24.5903 12.0262 25.2493C13.2497 25.9083 14.6194 26.249 16.0091 26.24C17.1844 26.2424 18.3465 25.9927 19.4171 25.5077C20.4876 25.0227 21.4416 24.3137 22.2148 23.4286C22.2882 23.3428 22.3778 23.2724 22.4785 23.2213C22.5792 23.1703 22.689 23.1397 22.8015 23.1312C22.9141 23.1227 23.0272 23.1365 23.1344 23.1718C23.2416 23.2072 23.3408 23.2634 23.4262 23.3371C23.5968 23.487 23.7019 23.6978 23.719 23.9242C23.7361 24.1506 23.6638 24.3748 23.5177 24.5486C22.5863 25.628 21.4339 26.4948 20.1385 27.0903C18.843 27.6857 17.4348 27.996 16.0091 28Z" fill="#9B9A9A"/>
<path d="M26.2958 22.2844C26.1832 22.285 26.0716 22.263 25.9676 22.2198C25.8636 22.1766 25.7693 22.1131 25.6901 22.033C25.5296 21.8723 25.4395 21.6544 25.4395 21.4273C25.4395 21.2001 25.5296 20.9823 25.6901 20.8216L28.513 17.9987L25.6901 15.1759C25.5387 15.0134 25.4563 14.7985 25.4602 14.5764C25.4641 14.3543 25.5541 14.1425 25.7111 13.9854C25.8682 13.8284 26.08 13.7384 26.3021 13.7345C26.5242 13.7306 26.7391 13.813 26.9016 13.9644L30.3301 17.393C30.4906 17.5537 30.5808 17.7716 30.5808 17.9987C30.5808 18.2259 30.4906 18.4437 30.3301 18.6044L26.9016 22.033C26.8224 22.1131 26.7281 22.1766 26.6241 22.2198C26.52 22.263 26.4085 22.285 26.2958 22.2844Z" fill="#9B9A9A"/>
<path d="M29.7235 18.8588H17.1521C16.9247 18.8588 16.7067 18.7685 16.546 18.6078C16.3852 18.447 16.2949 18.229 16.2949 18.0017C16.2949 17.7743 16.3852 17.5563 16.546 17.3956C16.7067 17.2348 16.9247 17.1445 17.1521 17.1445H29.7235C29.9508 17.1445 30.1688 17.2348 30.3296 17.3956C30.4903 17.5563 30.5806 17.7743 30.5806 18.0017C30.5806 18.229 30.4903 18.447 30.3296 18.6078C30.1688 18.7685 29.9508 18.8588 29.7235 18.8588Z" fill="#9B9A9A"/>
</svg>
