
<svg width="36" height="" viewBox="0 0 25 20" fill="none" xmlns="http://www.w3.org/2000/svg">
<path d="M10.0091 20C8.33656 20.0015 6.69035 19.5835 5.22115 18.7842C3.75196 17.9849 2.5067 16.8299 1.59937 15.4249C0.692034 14.0198 0.151606 12.4097 0.0275485 10.7417C-0.0965088 9.0738 0.199768 7.40139 0.88926 5.87758C1.57875 4.35377 2.63943 3.02724 3.97422 2.0194C5.30901 1.01157 6.87527 0.354619 8.52963 0.108693C10.184 -0.137233 11.8736 0.0357169 13.4438 0.611713C15.0141 1.18771 16.4147 2.14835 17.5177 3.40571C17.6638 3.57951 17.7361 3.80364 17.719 4.03007C17.7019 4.2565 17.5968 4.46724 17.4262 4.61714C17.3408 4.69092 17.2416 4.74709 17.1344 4.78244C17.0272 4.81778 16.9141 4.83161 16.8015 4.82311C16.689 4.81462 16.5792 4.78397 16.4785 4.73293C16.3778 4.6819 16.2882 4.61148 16.2148 4.52571C15.3043 3.47581 14.1442 2.67181 12.8415 2.1877C11.5388 1.70359 10.1353 1.55493 8.76007 1.7554C7.38486 1.95587 6.08216 2.49903 4.97187 3.33489C3.86158 4.17075 2.97937 5.27245 2.40644 6.53861C1.8335 7.80476 1.58825 9.19469 1.69325 10.5805C1.79825 11.9662 2.25013 13.3033 3.0073 14.4687C3.76447 15.6341 4.8026 16.5903 6.02616 17.2493C7.24971 17.9083 8.61938 18.249 10.0091 18.24C11.1844 18.2424 12.3465 17.9927 13.4171 17.5077C14.4876 17.0227 15.4416 16.3137 16.2148 15.4286C16.2882 15.3428 16.3778 15.2724 16.4785 15.2213C16.5792 15.1703 16.689 15.1397 16.8015 15.1312C16.9141 15.1227 17.0272 15.1365 17.1344 15.1718C17.2416 15.2072 17.3408 15.2634 17.4262 15.3371C17.5968 15.487 17.7019 15.6978 17.719 15.9242C17.7361 16.1506 17.6638 16.3748 17.5177 16.5486C16.5863 17.628 15.4339 18.4948 14.1385 19.0903C12.843 19.6857 11.4348 19.996 10.0091 20Z" fill="#C42C2D"/>
<path d="M20.2958 14.2844C20.1832 14.285 20.0716 14.263 19.9676 14.2198C19.8636 14.1766 19.7693 14.1131 19.6901 14.033C19.5296 13.8723 19.4395 13.6544 19.4395 13.4273C19.4395 13.2001 19.5296 12.9823 19.6901 12.8216L22.513 9.99871L19.6901 7.17585C19.5387 7.01337 19.4563 6.79846 19.4602 6.5764C19.4641 6.35434 19.5541 6.14247 19.7111 5.98543C19.8682 5.82838 20.08 5.73843 20.3021 5.73451C20.5242 5.73059 20.7391 5.81302 20.9016 5.96442L24.3301 9.39299C24.4906 9.55371 24.5808 9.77156 24.5808 9.99871C24.5808 10.2259 24.4906 10.4437 24.3301 10.6044L20.9016 14.033C20.8224 14.1131 20.7281 14.1766 20.6241 14.2198C20.52 14.263 20.4085 14.285 20.2958 14.2844Z" fill="#C42C2D"/>
<path d="M23.7235 10.8588H11.1521C10.9247 10.8588 10.7067 10.7685 10.546 10.6078C10.3852 10.447 10.2949 10.229 10.2949 10.0017C10.2949 9.77435 10.3852 9.55633 10.546 9.39558C10.7067 9.23484 10.9247 9.14453 11.1521 9.14453H23.7235C23.9508 9.14453 24.1688 9.23484 24.3296 9.39558C24.4903 9.55633 24.5806 9.77435 24.5806 10.0017C24.5806 10.229 24.4903 10.447 24.3296 10.6078C24.1688 10.7685 23.9508 10.8588 23.7235 10.8588Z" fill="#C42C2D"/>
</svg>
