<svg width="36" height="22" viewBox="0 0 36 22" fill="none" xmlns="http://www.w3.org/2000/svg">
<path d="M17.9996 13.6438C17.015 13.6438 16.0526 13.3518 15.2339 12.8048C14.4153 12.2578 13.7772 11.4803 13.4004 10.5707C13.0236 9.66104 12.9251 8.66011 13.1171 7.69444C13.3092 6.72878 13.7833 5.84177 14.4795 5.14556C15.1757 4.44936 16.0628 3.97524 17.0284 3.78316C17.9941 3.59107 18.995 3.68966 19.9047 4.06644C20.8143 4.44322 21.5918 5.08128 22.1388 5.89993C22.6858 6.71858 22.9777 7.68105 22.9777 8.66563C22.9762 9.98545 22.4513 11.2508 21.518 12.184C20.5848 13.1173 19.3194 13.6423 17.9996 13.6438ZM17.9996 4.8125C17.2375 4.8125 16.4926 5.03848 15.8589 5.46187C15.2253 5.88526 14.7314 6.48703 14.4398 7.1911C14.1482 7.89517 14.0718 8.6699 14.2205 9.41734C14.3692 10.1648 14.7362 10.8513 15.275 11.3902C15.8139 11.9291 16.5005 12.296 17.2479 12.4447C17.9953 12.5934 18.7701 12.5171 19.4741 12.2255C20.1782 11.9338 20.78 11.44 21.2034 10.8063C21.6268 10.1727 21.8527 9.4277 21.8527 8.66563C21.8512 7.64417 21.4448 6.66498 20.7225 5.9427C20.0003 5.22042 19.0211 4.81399 17.9996 4.8125Z" fill="#C42C2D"/>
<path d="M18.0003 21.9431C15.4408 21.9972 12.9466 21.1332 10.969 19.5075C10.8986 19.4409 10.8465 19.3572 10.818 19.2646C10.7894 19.1719 10.7852 19.0735 10.8059 18.9787C11.689 14.8106 14.2484 12.5156 18.0003 12.5156C18.1495 12.5156 18.2926 12.5749 18.398 12.6804C18.5035 12.7859 18.5628 12.9289 18.5628 13.0781C18.5628 13.2273 18.5035 13.3704 18.398 13.4759C18.2926 13.5814 18.1495 13.6406 18.0003 13.6406C14.884 13.6406 12.8084 15.4519 11.9815 18.8831C13.7254 20.1627 15.8375 20.8417 18.0003 20.8181C18.1495 20.8181 18.2926 20.8774 18.398 20.9829C18.5035 21.0884 18.5628 21.2314 18.5628 21.3806C18.5628 21.5298 18.5035 21.6729 18.398 21.7784C18.2926 21.8839 18.1495 21.9431 18.0003 21.9431Z" fill="#C42C2D"/>
<path d="M18 21.9466C17.8508 21.9466 17.7077 21.8873 17.6023 21.7818C17.4968 21.6763 17.4375 21.5332 17.4375 21.3841C17.4375 21.2349 17.4968 21.0918 17.6023 20.9863C17.7077 20.8808 17.8508 20.8216 18 20.8216C20.1641 20.8419 22.2763 20.1589 24.0188 18.8753C23.1919 15.4441 21.1163 13.6328 18 13.6328C17.8508 13.6328 17.7077 13.5735 17.6023 13.4681C17.4968 13.3626 17.4375 13.2195 17.4375 13.0703C17.4375 12.9211 17.4968 12.7781 17.6023 12.6726C17.7077 12.5671 17.8508 12.5078 18 12.5078C21.7519 12.5078 24.3113 14.8028 25.1944 18.9709C25.2151 19.0657 25.2109 19.1641 25.1823 19.2568C25.1537 19.3494 25.1017 19.4331 25.0313 19.4997C23.0553 21.1294 20.5609 21.9975 18 21.9466Z" fill="#C42C2D"/>
<path d="M6.74963 8.40563C5.92207 8.40561 5.11314 8.15992 4.42537 7.69968C3.7376 7.23944 3.20194 6.58538 2.88628 5.82039C2.57063 5.0554 2.48919 4.21391 2.65228 3.40259C2.81538 2.59126 3.21566 1.84661 3.80241 1.26302C4.38916 0.679432 5.13596 0.28317 5.94815 0.124458C6.76035 -0.0342543 7.60138 0.0517282 8.36466 0.371508C9.12793 0.691288 9.7791 1.23047 10.2356 1.92072C10.6921 2.61097 10.9335 3.42121 10.929 4.24875C10.9231 5.35329 10.4801 6.41056 9.69697 7.18948C8.91382 7.96841 7.85418 8.40564 6.74963 8.40563ZM6.74963 1.1775C6.14625 1.17751 5.55639 1.35623 5.05448 1.69111C4.55256 2.02599 4.16107 2.50202 3.9294 3.05915C3.69774 3.61628 3.63627 4.22955 3.75277 4.82158C3.86926 5.4136 4.15849 5.95786 4.58396 6.38569C5.00944 6.81351 5.5521 7.10574 6.14347 7.22549C6.73485 7.34524 7.34844 7.28716 7.90684 7.05857C8.46524 6.82997 8.94343 6.44111 9.28106 5.94105C9.6187 5.44098 9.80067 4.85212 9.804 4.24875C9.80623 3.84623 9.72886 3.44723 9.57636 3.07471C9.42386 2.70219 9.19923 2.36348 8.91539 2.07807C8.63154 1.79265 8.29408 1.56616 7.9224 1.41161C7.55072 1.25706 7.15216 1.1775 6.74963 1.1775Z" fill="#C42C2D"/>
<path d="M6.74967 15.2975C4.62452 15.3357 2.5564 14.609 0.922167 13.25C0.851714 13.1834 0.799673 13.0997 0.771092 13.0071C0.742511 12.9144 0.73836 12.816 0.759042 12.7213C1.49029 9.25625 3.62217 7.34375 6.74967 7.34375C6.89885 7.34375 7.04192 7.40301 7.14741 7.5085C7.2529 7.61399 7.31217 7.75707 7.31217 7.90625C7.31217 8.05543 7.2529 8.19851 7.14741 8.304C7.04192 8.40949 6.89885 8.46875 6.74967 8.46875C4.26904 8.46875 2.60967 9.90312 1.93467 12.6256C3.33344 13.6419 5.02071 14.184 6.74967 14.1725C6.89885 14.1725 7.04192 14.2318 7.14741 14.3373C7.2529 14.4427 7.31217 14.5858 7.31217 14.735C7.31217 14.8842 7.2529 15.0273 7.14741 15.1327C7.04192 15.2382 6.89885 15.2975 6.74967 15.2975Z" fill="#C42C2D"/>
<path d="M6.75 15.2945C6.60082 15.2945 6.45774 15.2353 6.35225 15.1298C6.24676 15.0243 6.1875 14.8812 6.1875 14.732C6.1875 14.5828 6.24676 14.4398 6.35225 14.3343C6.45774 14.2288 6.60082 14.1695 6.75 14.1695C8.47627 14.1864 10.1629 13.6524 11.565 12.6452C10.89 9.92266 9.23062 8.48828 6.75 8.48828C6.60082 8.48828 6.45774 8.42902 6.35225 8.32353C6.24676 8.21804 6.1875 8.07497 6.1875 7.92578C6.1875 7.7766 6.24676 7.63352 6.35225 7.52803C6.45774 7.42254 6.60082 7.36328 6.75 7.36328C9.8775 7.36328 12.0037 9.27578 12.7406 12.7408C12.7613 12.8355 12.7572 12.934 12.7286 13.0266C12.7 13.1192 12.648 13.2029 12.5775 13.2695C10.9401 14.6205 8.8723 15.339 6.75 15.2945Z" fill="#C42C2D"/>
<path d="M29.2496 8.40563C28.4221 8.40561 27.6131 8.15992 26.9254 7.69968C26.2376 7.23944 25.7019 6.58538 25.3863 5.82039C25.0706 5.0554 24.9892 4.21391 25.1523 3.40259C25.3154 2.59126 25.7157 1.84661 26.3024 1.26302C26.8892 0.679432 27.636 0.28317 28.4482 0.124458C29.2603 -0.0342543 30.1014 0.0517282 30.8647 0.371508C31.6279 0.691288 32.2791 1.23047 32.7356 1.92072C33.1921 2.61097 33.4335 3.42121 33.429 4.24875C33.4216 5.35283 32.9782 6.40924 32.1953 7.18785C31.4125 7.96646 30.3537 8.40417 29.2496 8.40563ZM29.2496 1.1775C28.6463 1.17751 28.0564 1.35623 27.5545 1.69111C27.0526 2.02599 26.6611 2.50202 26.4294 3.05915C26.1977 3.61628 26.1363 4.22955 26.2528 4.82158C26.3693 5.4136 26.6585 5.95786 27.084 6.38569C27.5094 6.81351 28.0521 7.10574 28.6435 7.22549C29.2348 7.34524 29.8484 7.28716 30.4068 7.05857C30.9652 6.82997 31.4434 6.44111 31.7811 5.94105C32.1187 5.44098 32.3007 4.85212 32.304 4.24875C32.3062 3.84623 32.2289 3.44723 32.0764 3.07471C31.9239 2.70219 31.6992 2.36348 31.4154 2.07807C31.1315 1.79265 30.7941 1.56616 30.4224 1.41161C30.0507 1.25706 29.6522 1.1775 29.2496 1.1775Z" fill="#C42C2D"/>
<path d="M29.25 15.2945C29.1008 15.2945 28.9577 15.2353 28.8523 15.1298C28.7468 15.0243 28.6875 14.8812 28.6875 14.732C28.6875 14.5828 28.7468 14.4398 28.8523 14.3343C28.9577 14.2288 29.1008 14.1695 29.25 14.1695C30.9763 14.1864 32.6629 13.6524 34.065 12.6452C33.39 9.92266 31.7306 8.48828 29.25 8.48828C29.1008 8.48828 28.9577 8.42902 28.8523 8.32353C28.7468 8.21804 28.6875 8.07497 28.6875 7.92578C28.6875 7.7766 28.7468 7.63352 28.8523 7.52803C28.9577 7.42254 29.1008 7.36328 29.25 7.36328C32.3775 7.36328 34.5094 9.27578 35.2406 12.7408C35.2613 12.8355 35.2572 12.934 35.2286 13.0266C35.2 13.1192 35.148 13.2029 35.0775 13.2695C33.4401 14.6205 31.3723 15.339 29.25 15.2945Z" fill="#C42C2D"/>
<path d="M29.2497 15.2975C27.1245 15.3357 25.0564 14.609 23.4222 13.25C23.3517 13.1834 23.2997 13.0997 23.2711 13.0071C23.2425 12.9144 23.2384 12.816 23.259 12.7213C23.9959 9.25625 26.1222 7.34375 29.2497 7.34375C29.3989 7.34375 29.5419 7.40301 29.6474 7.5085C29.7529 7.61399 29.8122 7.75707 29.8122 7.90625C29.8122 8.05543 29.7529 8.19851 29.6474 8.304C29.5419 8.40949 29.3989 8.46875 29.2497 8.46875C26.769 8.46875 25.1097 9.90312 24.4347 12.6256C25.834 13.6409 27.5209 14.1828 29.2497 14.1725C29.3989 14.1725 29.5419 14.2318 29.6474 14.3373C29.7529 14.4427 29.8122 14.5858 29.8122 14.735C29.8122 14.8842 29.7529 15.0273 29.6474 15.1327C29.5419 15.2382 29.3989 15.2975 29.2497 15.2975Z" fill="#C42C2D"/>
</svg>
