<svg width="36" height="36" viewBox="0 0 36 36" fill="none" xmlns="http://www.w3.org/2000/svg">
<path d="M17.9996 20.6438C17.015 20.6438 16.0526 20.3518 15.2339 19.8048C14.4153 19.2578 13.7772 18.4803 13.4004 17.5707C13.0236 16.661 12.9251 15.6601 13.1171 14.6944C13.3092 13.7288 13.7833 12.8418 14.4795 12.1456C15.1757 11.4494 16.0628 10.9752 17.0284 10.7832C17.9941 10.5911 18.995 10.6897 19.9047 11.0664C20.8143 11.4432 21.5918 12.0813 22.1388 12.8999C22.6858 13.7186 22.9777 14.681 22.9777 15.6656C22.9762 16.9855 22.4513 18.2508 21.518 19.184C20.5848 20.1173 19.3194 20.6423 17.9996 20.6438ZM17.9996 11.8125C17.2375 11.8125 16.4926 12.0385 15.8589 12.4619C15.2253 12.8853 14.7314 13.487 14.4398 14.1911C14.1482 14.8952 14.0718 15.6699 14.2205 16.4173C14.3692 17.1648 14.7362 17.8513 15.275 18.3902C15.8139 18.9291 16.5005 19.296 17.2479 19.4447C17.9953 19.5934 18.7701 19.5171 19.4741 19.2255C20.1782 18.9338 20.78 18.44 21.2034 17.8063C21.6268 17.1727 21.8527 16.4277 21.8527 15.6656C21.8512 14.6442 21.4448 13.665 20.7225 12.9427C20.0003 12.2204 19.0211 11.814 17.9996 11.8125Z" fill="#9B9A9A"/>
<path d="M18.0003 28.9431C15.4408 28.9972 12.9466 28.1332 10.969 26.5075C10.8986 26.4409 10.8465 26.3572 10.818 26.2646C10.7894 26.1719 10.7852 26.0735 10.8059 25.9787C11.689 21.8106 14.2484 19.5156 18.0003 19.5156C18.1495 19.5156 18.2926 19.5749 18.398 19.6804C18.5035 19.7859 18.5628 19.9289 18.5628 20.0781C18.5628 20.2273 18.5035 20.3704 18.398 20.4759C18.2926 20.5814 18.1495 20.6406 18.0003 20.6406C14.884 20.6406 12.8084 22.4519 11.9815 25.8831C13.7254 27.1627 15.8375 27.8417 18.0003 27.8181C18.1495 27.8181 18.2926 27.8774 18.398 27.9829C18.5035 28.0884 18.5628 28.2314 18.5628 28.3806C18.5628 28.5298 18.5035 28.6729 18.398 28.7784C18.2926 28.8839 18.1495 28.9431 18.0003 28.9431Z" fill="#9B9A9A"/>
<path d="M18 28.9466C17.8508 28.9466 17.7077 28.8873 17.6023 28.7818C17.4968 28.6763 17.4375 28.5332 17.4375 28.3841C17.4375 28.2349 17.4968 28.0918 17.6023 27.9863C17.7077 27.8808 17.8508 27.8216 18 27.8216C20.1641 27.8419 22.2763 27.1589 24.0188 25.8753C23.1919 22.4441 21.1163 20.6328 18 20.6328C17.8508 20.6328 17.7077 20.5735 17.6023 20.4681C17.4968 20.3626 17.4375 20.2195 17.4375 20.0703C17.4375 19.9211 17.4968 19.7781 17.6023 19.6726C17.7077 19.5671 17.8508 19.5078 18 19.5078C21.7519 19.5078 24.3113 21.8028 25.1944 25.9709C25.2151 26.0657 25.2109 26.1641 25.1823 26.2568C25.1537 26.3494 25.1017 26.4331 25.0313 26.4997C23.0553 28.1294 20.5609 28.9975 18 28.9466Z" fill="#9B9A9A"/>
<path d="M6.74963 15.4056C5.92207 15.4056 5.11314 15.1599 4.42537 14.6997C3.7376 14.2394 3.20194 13.5854 2.88628 12.8204C2.57063 12.0554 2.48919 11.2139 2.65228 10.4026C2.81538 9.59126 3.21566 8.84661 3.80241 8.26302C4.38916 7.67943 5.13596 7.28317 5.94815 7.12446C6.76035 6.96575 7.60138 7.05173 8.36466 7.37151C9.12793 7.69129 9.7791 8.23047 10.2356 8.92072C10.6921 9.61097 10.9335 10.4212 10.929 11.2488C10.9231 12.3533 10.4801 13.4106 9.69697 14.1895C8.91382 14.9684 7.85418 15.4056 6.74963 15.4056ZM6.74963 8.1775C6.14625 8.17751 5.55639 8.35623 5.05448 8.69111C4.55256 9.02599 4.16107 9.50202 3.9294 10.0592C3.69774 10.6163 3.63627 11.2296 3.75277 11.8216C3.86926 12.4136 4.15849 12.9579 4.58396 13.3857C5.00944 13.8135 5.5521 14.1057 6.14347 14.2255C6.73485 14.3452 7.34844 14.2872 7.90684 14.0586C8.46524 13.83 8.94343 13.4411 9.28106 12.941C9.6187 12.441 9.80067 11.8521 9.804 11.2488C9.80623 10.8462 9.72886 10.4472 9.57636 10.0747C9.42386 9.70219 9.19923 9.36348 8.91539 9.07807C8.63154 8.79265 8.29408 8.56616 7.9224 8.41161C7.55072 8.25706 7.15216 8.1775 6.74963 8.1775Z" fill="#9B9A9A"/>
<path d="M6.74967 22.2975C4.62452 22.3357 2.5564 21.609 0.922167 20.25C0.851714 20.1834 0.799673 20.0997 0.771092 20.0071C0.742511 19.9144 0.73836 19.816 0.759042 19.7213C1.49029 16.2563 3.62217 14.3438 6.74967 14.3438C6.89885 14.3438 7.04192 14.403 7.14741 14.5085C7.2529 14.614 7.31217 14.7571 7.31217 14.9062C7.31217 15.0554 7.2529 15.1985 7.14741 15.304C7.04192 15.4095 6.89885 15.4688 6.74967 15.4688C4.26904 15.4688 2.60967 16.9031 1.93467 19.6256C3.33344 20.6419 5.02071 21.184 6.74967 21.1725C6.89885 21.1725 7.04192 21.2318 7.14741 21.3373C7.2529 21.4427 7.31217 21.5858 7.31217 21.735C7.31217 21.8842 7.2529 22.0273 7.14741 22.1327C7.04192 22.2382 6.89885 22.2975 6.74967 22.2975Z" fill="#9B9A9A"/>
<path d="M6.75 22.2945C6.60082 22.2945 6.45774 22.2353 6.35225 22.1298C6.24676 22.0243 6.1875 21.8812 6.1875 21.732C6.1875 21.5828 6.24676 21.4398 6.35225 21.3343C6.45774 21.2288 6.60082 21.1695 6.75 21.1695C8.47627 21.1864 10.1629 20.6524 11.565 19.6452C10.89 16.9227 9.23062 15.4883 6.75 15.4883C6.60082 15.4883 6.45774 15.429 6.35225 15.3235C6.24676 15.218 6.1875 15.075 6.1875 14.9258C6.1875 14.7766 6.24676 14.6335 6.35225 14.528C6.45774 14.4225 6.60082 14.3633 6.75 14.3633C9.8775 14.3633 12.0037 16.2758 12.7406 19.7408C12.7613 19.8355 12.7572 19.934 12.7286 20.0266C12.7 20.1192 12.648 20.2029 12.5775 20.2695C10.9401 21.6205 8.8723 22.339 6.75 22.2945Z" fill="#9B9A9A"/>
<path d="M29.2496 15.4056C28.4221 15.4056 27.6131 15.1599 26.9254 14.6997C26.2376 14.2394 25.7019 13.5854 25.3863 12.8204C25.0706 12.0554 24.9892 11.2139 25.1523 10.4026C25.3154 9.59126 25.7157 8.84661 26.3024 8.26302C26.8892 7.67943 27.636 7.28317 28.4482 7.12446C29.2603 6.96575 30.1014 7.05173 30.8647 7.37151C31.6279 7.69129 32.2791 8.23047 32.7356 8.92072C33.1921 9.61097 33.4335 10.4212 33.429 11.2488C33.4216 12.3528 32.9782 13.4092 32.1953 14.1878C31.4125 14.9665 30.3537 15.4042 29.2496 15.4056ZM29.2496 8.1775C28.6463 8.17751 28.0564 8.35623 27.5545 8.69111C27.0526 9.02599 26.6611 9.50202 26.4294 10.0592C26.1977 10.6163 26.1363 11.2296 26.2528 11.8216C26.3693 12.4136 26.6585 12.9579 27.084 13.3857C27.5094 13.8135 28.0521 14.1057 28.6435 14.2255C29.2348 14.3452 29.8484 14.2872 30.4068 14.0586C30.9652 13.83 31.4434 13.4411 31.7811 12.941C32.1187 12.441 32.3007 11.8521 32.304 11.2488C32.3062 10.8462 32.2289 10.4472 32.0764 10.0747C31.9239 9.70219 31.6992 9.36348 31.4154 9.07807C31.1315 8.79265 30.7941 8.56616 30.4224 8.41161C30.0507 8.25706 29.6522 8.1775 29.2496 8.1775Z" fill="#9B9A9A"/>
<path d="M29.25 22.2945C29.1008 22.2945 28.9577 22.2353 28.8523 22.1298C28.7468 22.0243 28.6875 21.8812 28.6875 21.732C28.6875 21.5828 28.7468 21.4398 28.8523 21.3343C28.9577 21.2288 29.1008 21.1695 29.25 21.1695C30.9763 21.1864 32.6629 20.6524 34.065 19.6452C33.39 16.9227 31.7306 15.4883 29.25 15.4883C29.1008 15.4883 28.9577 15.429 28.8523 15.3235C28.7468 15.218 28.6875 15.075 28.6875 14.9258C28.6875 14.7766 28.7468 14.6335 28.8523 14.528C28.9577 14.4225 29.1008 14.3633 29.25 14.3633C32.3775 14.3633 34.5094 16.2758 35.2406 19.7408C35.2613 19.8355 35.2572 19.934 35.2286 20.0266C35.2 20.1192 35.148 20.2029 35.0775 20.2695C33.4401 21.6205 31.3723 22.339 29.25 22.2945Z" fill="#9B9A9A"/>
<path d="M29.2497 22.2975C27.1245 22.3357 25.0564 21.609 23.4222 20.25C23.3517 20.1834 23.2997 20.0997 23.2711 20.0071C23.2425 19.9144 23.2384 19.816 23.259 19.7213C23.9959 16.2563 26.1222 14.3438 29.2497 14.3438C29.3989 14.3438 29.5419 14.403 29.6474 14.5085C29.7529 14.614 29.8122 14.7571 29.8122 14.9062C29.8122 15.0554 29.7529 15.1985 29.6474 15.304C29.5419 15.4095 29.3989 15.4688 29.2497 15.4688C26.769 15.4688 25.1097 16.9031 24.4347 19.6256C25.834 20.6409 27.5209 21.1828 29.2497 21.1725C29.3989 21.1725 29.5419 21.2318 29.6474 21.3373C29.7529 21.4427 29.8122 21.5858 29.8122 21.735C29.8122 21.8842 29.7529 22.0273 29.6474 22.1327C29.5419 22.2382 29.3989 22.2975 29.2497 22.2975Z" fill="#9B9A9A"/>
</svg>
