<svg width="36" height="36" viewBox="0 0 36 36" fill="none" xmlns="http://www.w3.org/2000/svg">
<path d="M33.275 5.38325C28.0365 5.38325 21.144 3.61555 18.6872 0.340538C18.3603 -0.0574404 17.7728 -0.114844 17.3748 0.211999C17.3279 0.250451 17.2848 0.293572 17.2463 0.340538C14.7892 3.61528 7.89668 5.38325 2.65841 5.38325C2.16101 5.38325 1.75781 5.78645 1.75781 6.28385V17.99C1.75781 27.892 10.3565 33.8614 17.7195 35.9647C17.881 36.0117 18.0524 36.0117 18.2139 35.9647C25.5769 33.8614 34.1756 27.892 34.1756 17.99V6.28385C34.1756 5.78645 33.7724 5.38325 33.275 5.38325ZM32.3744 17.99C32.3744 26.7804 24.6711 32.1692 17.9667 34.1621C11.2623 32.1692 3.55874 26.7804 3.55874 17.99V7.16852C8.76378 6.99247 14.9189 5.31459 17.9667 2.24913C21.0149 5.31459 27.1697 6.99247 32.3747 7.16825V17.99H32.3744Z" fill="#C42C2D"/>
<path d="M14.3657 14.387V16.1879H13.4651C12.9677 16.1879 12.5645 16.5911 12.5645 17.0885V24.2923C12.5645 24.7897 12.9677 25.1929 13.4651 25.1929H22.47C22.9674 25.1929 23.3706 24.7897 23.3706 24.2923V17.0885C23.3706 16.5911 22.9674 16.1879 22.47 16.1879H21.5694V14.387C21.5694 12.3977 19.9569 10.7852 17.9675 10.7852C15.9782 10.7852 14.3657 12.3977 14.3657 14.387ZM21.5694 23.3919H14.3657V17.9889H21.5694V23.3919ZM19.7684 14.387V16.1879H16.1666V14.387C16.1666 13.3925 16.9727 12.5861 17.9675 12.5861C18.962 12.5861 19.7684 13.3925 19.7684 14.387Z" fill="#C42C2D"/>
</svg>
