<svg width="22" height="16" viewBox="0 0 22 16" fill="none" xmlns="http://www.w3.org/2000/svg">
<path d="M5.77679 0.164063C8.61608 0.164063 10.6657 2.5081 10.6656 5.97885C10.6474 11.0216 6.8565 14.587 1.38755 15.2717C0.880166 15.3353 0.684524 14.6324 1.15176 14.4246C3.25024 13.4915 4.31008 12.3075 4.44698 11.1355C4.54926 10.2599 4.07326 9.49284 3.47557 9.34922C1.92607 8.97688 0.887896 7.04726 0.887896 5.05295C0.887896 2.35289 3.07673 0.164063 5.77679 0.164063Z" fill="#C42C2D"/>
<path d="M16.4448 0.164063C19.2841 0.164063 21.3336 2.5081 21.3336 5.97885C21.3154 11.0216 17.5245 14.587 12.0555 15.2717C11.5481 15.3353 11.3525 14.6324 11.8197 14.4246C13.9182 13.4915 14.9781 12.3075 15.1149 11.1355C15.2172 10.2599 14.7412 9.49284 14.1435 9.34922C12.594 8.97688 11.5559 7.04726 11.5559 5.05295C11.5559 2.35289 13.7447 0.164063 16.4448 0.164063Z" fill="#C42C2D"/>
</svg>
