<svg width="36" height="36" viewBox="0 0 36 36" fill="none" xmlns="http://www.w3.org/2000/svg">
<path d="M18.2953 18.907C14.4618 18.907 11.3418 15.787 11.3418 11.9535C11.3418 8.12 14.4618 5 18.2953 5C22.1288 5 25.2488 8.12 25.2488 11.9535C25.2488 15.787 22.1288 18.907 18.2953 18.907ZM18.2953 6.81395C15.4655 6.81395 13.1558 9.12372 13.1558 11.9535C13.1558 14.7833 15.4655 17.093 18.2953 17.093C21.1251 17.093 23.4348 14.7833 23.4348 11.9535C23.4348 9.12372 21.1251 6.81395 18.2953 6.81395Z" fill="#C42C2D"/>
<path d="M28.6827 30.9978C28.1869 30.9978 27.7757 30.5867 27.7757 30.0908C27.7757 25.9187 23.5191 22.5327 18.2949 22.5327C13.0707 22.5327 8.81395 25.9187 8.81395 30.0908C8.81395 30.5867 8.40279 30.9978 7.90698 30.9978C7.41116 30.9978 7 30.5867 7 30.0908C7 24.9271 12.067 20.7188 18.2949 20.7188C24.5228 20.7188 29.5897 24.9271 29.5897 30.0908C29.5897 30.5867 29.1785 30.9978 28.6827 30.9978Z" fill="#C42C2D"/>
</svg>
