<svg width="36" height="36" viewBox="0 0 36 36" fill="none" xmlns="http://www.w3.org/2000/svg">
<path d="M32.45 3.35156H3.55C2.4 3.35156 1.5 4.25156 1.5 5.35156V24.1016C1.5 25.2016 2.4 26.1516 3.55 26.1516H32.5C33.6 26.1516 34.55 25.2516 34.55 24.1016V5.35156C34.5 4.25156 33.6 3.35156 32.45 3.35156ZM33.5 24.1016C33.5 24.6516 33.05 25.1516 32.45 25.1516H3.55C3 25.1516 2.5 24.7016 2.5 24.1016V5.35156C2.5 4.80156 2.95 4.30156 3.55 4.30156H32.5C33.05 4.30156 33.55 4.75156 33.55 5.35156V24.1016H33.5Z" fill="#C42C2D"/>
<path d="M18 6.45312C13.45 6.45312 9.75 10.1531 9.75 14.7531C9.75 19.3031 13.45 23.0031 18 23.0031C22.55 23.0031 26.25 19.3031 26.25 14.7531C26.25 10.1531 22.55 6.45312 18 6.45312ZM18 22.0031C14 22.0031 10.75 18.7531 10.75 14.7531C10.75 10.7531 14 7.45312 18 7.45312C22 7.45312 25.25 10.7031 25.25 14.7531C25.25 18.7531 22 22.0031 18 22.0031Z" fill="#C42C2D"/>
<path d="M21.05 13.5032L16.9 11.0032C15.95 10.4532 14.75 11.1032 14.75 12.2532V17.2532C14.75 18.3532 15.95 19.0532 16.9 18.5032L21.05 16.0032C22 15.4032 22 14.0532 21.05 13.5032ZM20.55 15.1032L16.4 17.6032C16.1 17.7532 15.75 17.5532 15.75 17.2532V12.2532C15.75 11.9032 16.1 11.7032 16.4 11.9032L20.55 14.4032C20.75 14.5032 20.75 14.7032 20.75 14.7532C20.75 14.8032 20.7 15.0032 20.55 15.1032Z" fill="#C42C2D"/>
<path d="M33.9992 30.2469H10.0492C9.79922 29.3969 8.84922 28.7969 7.69922 28.7969C6.54922 28.7969 5.64922 29.3969 5.39922 30.2469H2.44922C2.14922 30.2469 1.94922 30.4469 1.94922 30.7469C1.94922 31.0469 2.14922 31.2469 2.44922 31.2469H5.39922C5.69922 32.0969 6.59922 32.6969 7.69922 32.6969C8.79922 32.6969 9.74922 32.0969 10.0492 31.2469H33.9992C34.2992 31.2469 34.4992 31.0469 34.4992 30.7469C34.4992 30.4469 34.2992 30.2469 33.9992 30.2469ZM7.69922 31.6469C6.94922 31.6469 6.29922 31.1969 6.29922 30.6969C6.29922 30.1969 6.94922 29.7469 7.69922 29.7469C8.44922 29.7469 9.09922 30.1969 9.09922 30.6969C9.09922 31.2469 8.44922 31.6469 7.69922 31.6469Z" fill="#C42C2D"/>
</svg>
