<svg width="24" height="24" viewBox="0 0 24 24" fill="none" xmlns="http://www.w3.org/2000/svg">
<g clip-path="url(#clip0_1410_132717)">
<path d="M12 24C18.617 24 24 18.617 24 12C24 5.38298 18.617 0 12 0C5.38298 0 0 5.38298 0 12C0 18.617 5.38298 24 12 24ZM8.29298 11.293L13.293 6.29302C13.488 6.09802 13.744 6 14 6C14.256 6 14.512 6.09802 14.707 6.29302C15.098 6.684 15.098 7.31602 14.707 7.707L10.414 12L14.707 16.293C15.098 16.684 15.098 17.316 14.707 17.707C14.316 18.098 13.684 18.098 13.293 17.707L8.29298 12.707C7.902 12.316 7.902 11.684 8.29298 11.293Z" fill="#9B9A9A"/>
</g>
<defs>
<clipPath id="clip0_1410_132717">
<rect width="24" height="24" fill="white" transform="matrix(-1 0 0 -1 24 24)"/>
</clipPath>
</defs>
</svg>
