<svg width="36" height="36" viewBox="0 0 36 36" fill="none" xmlns="http://www.w3.org/2000/svg">
<rect width="36" height="36" rx="18" fill="#F2F4F7"/>
<g clip-path="url(#clip0_867_7350)">
<path d="M9.27441 26.9278H13.9351V14.6719H9.27441V26.9278ZM10.3291 15.7266H12.8804V25.8731H10.3291V15.7266Z" fill="#333333"/>
<path d="M11.605 9.07227C10.1686 9.07227 9 10.2409 9 11.6773C9 13.1137 10.1686 14.2824 11.605 14.2824C13.0415 14.2824 14.2101 13.1138 14.2101 11.6773C14.2101 10.2409 13.0415 9.07227 11.605 9.07227ZM10.0547 11.6773C10.0547 10.8224 10.7501 10.127 11.605 10.127C12.4599 10.127 13.1554 10.8224 13.1554 11.6773C13.1554 12.5322 12.4599 13.2277 11.605 13.2277C10.7501 13.2277 10.0547 12.5322 10.0547 11.6773Z" fill="#333333"/>
<path d="M26.9889 18.5187C26.8231 16.1332 24.8332 14.2949 22.3663 14.2949C21.2628 14.2949 20.2212 14.6785 19.4005 15.3592V14.6702H14.9346V26.9261H19.5953V20.2231C19.5953 19.4676 20.2099 18.853 20.9653 18.853C21.7207 18.853 22.3353 19.4676 22.3353 20.2234L22.3398 26.9261H27.0002V18.5301L26.9889 18.5187ZM18.5406 25.8715H15.9893V15.7249H18.3457V17.2312L19.1897 17.2361L19.3465 16.9927C20.0092 15.9638 21.1381 15.3496 22.3663 15.3496C24.3293 15.3496 25.901 16.8474 25.9445 18.7593L25.9455 25.8715H23.3938L23.39 20.2231C23.39 18.8861 22.3023 17.7983 20.9653 17.7983C19.6284 17.7983 18.5406 18.8861 18.5406 20.2231V25.8715Z" fill="#333333"/>
</g>
<defs>
<clipPath id="clip0_867_7350">
<rect width="18" height="18" fill="white" transform="translate(9 9)"/>
</clipPath>
</defs>
</svg>
