<svg width="36" height="36" viewBox="0 0 36 36" fill="none" xmlns="http://www.w3.org/2000/svg">
<rect width="36" height="36" rx="18" fill="#F2F4F7"/>
<g clipPath="url(#clip0_867_7391)">
<path d="M27.0772 8H12.8416C12.4965 8 12.2167 8.27984 12.2167 8.62496V22.2709H8.92184C8.57672 22.2709 8.29688 22.5507 8.29688 22.8958V24.3454C8.29688 26.3606 9.93625 28 11.9514 28H24.0477C26.0629 28 27.7023 26.3606 27.7023 24.3454V8.62496C27.7022 8.27984 27.4224 8 27.0772 8ZM11.9514 26.75C10.6255 26.75 9.54684 25.6714 9.54684 24.3454V23.5208H20.3931V24.3454C20.3931 25.2653 20.7347 26.1068 21.2978 26.75H11.9514ZM24.0477 26.75C22.7217 26.75 21.643 25.6714 21.643 24.3454V22.8958C21.643 22.5507 21.3632 22.2708 21.018 22.2708H13.4666V9.25H26.4523V24.3454C26.4523 25.6714 25.3736 26.75 24.0477 26.75Z" fill="#333333"/>
<path d="M15.252 15.5315H17.8277C18.0867 15.5315 18.2965 15.3215 18.2965 15.0627V11.5293C18.2965 11.2704 18.0867 11.0605 17.8277 11.0605H15.252C14.993 11.0605 14.7832 11.2704 14.7832 11.5293V15.0627C14.7832 15.3215 14.993 15.5315 15.252 15.5315ZM15.7207 11.998H17.359V14.594H15.7207V11.998Z" fill="#333333"/>
<path d="M19.3278 16.5938H15.0049C14.7459 16.5938 14.5361 16.8037 14.5361 17.0625C14.5361 17.3214 14.7459 17.5312 15.0049 17.5312H19.3278C19.5867 17.5312 19.7965 17.3214 19.7965 17.0625C19.7965 16.8037 19.5867 16.5938 19.3278 16.5938Z" fill="#333333"/>
<path d="M19.3278 18.375H15.0049C14.7459 18.375 14.5361 18.5848 14.5361 18.8438C14.5361 19.1025 14.7459 19.3125 15.0049 19.3125H19.3278C19.5867 19.3125 19.7965 19.1025 19.7965 18.8438C19.7965 18.5848 19.5867 18.375 19.3278 18.375Z" fill="#333333"/>
<path d="M19.3278 20.1562H15.0049C14.7459 20.1562 14.5361 20.3662 14.5361 20.625C14.5361 20.8839 14.7459 21.0938 15.0049 21.0938H19.3278C19.5867 21.0938 19.7965 20.8839 19.7965 20.625C19.7965 20.3662 19.5867 20.1562 19.3278 20.1562Z" fill="#333333"/>
<path d="M22.9121 13.1211C22.567 13.1211 22.2871 13.4009 22.2871 13.7461V14.3555C22.2871 14.7006 22.567 14.9804 22.9121 14.9804C23.2572 14.9804 23.537 14.7006 23.537 14.3555V13.7461C23.5371 13.4009 23.2573 13.1211 22.9121 13.1211Z" fill="#333333"/>
<path d="M22.9121 12.834C23.0778 12.834 23.2371 12.7652 23.3527 12.6497C23.4714 12.534 23.5371 12.3715 23.5371 12.209C23.5371 12.0433 23.4714 11.8808 23.3527 11.7653C23.1214 11.534 22.7027 11.534 22.4716 11.7653C22.3527 11.8808 22.2871 12.0433 22.2871 12.209C22.2871 12.3715 22.3527 12.534 22.4716 12.6497C22.5871 12.7652 22.7465 12.834 22.9121 12.834Z" fill="#333333"/>
<path d="M24.5013 18.0219L23.537 18.9864V16.0703C23.537 15.7252 23.2572 15.4453 22.912 15.4453C22.5669 15.4453 22.2871 15.7252 22.2871 16.0703V18.9864L21.3227 18.0222C21.0786 17.778 20.6828 17.7782 20.439 18.0222C20.1948 18.2662 20.1948 18.662 20.439 18.9061L22.4701 20.9372C22.5873 21.0544 22.7463 21.1203 22.912 21.1203C23.0778 21.1203 23.2367 21.0544 23.3539 20.9372L25.3851 18.9058C25.6293 18.6617 25.6293 18.2659 25.3851 18.0219C25.141 17.7779 24.7452 17.7779 24.5013 18.0219Z" fill="#333333"/>
</g>
<defs>
<clipPath id="clip0_867_7391">
<rect width="20" height="20" fill="white" transform="translate(8 8)"/>
</clipPath>
</defs>
</svg>
